<?xml version="1.0" encoding="UTF-8"?>
<!DOCTYPE svg PUBLIC "-//W3C//DTD SVG 1.1//EN" "http://www.w3.org/Graphics/SVG/1.1/DTD/svg11.dtd">
<!-- Creator: CorelDRAW 2020 (64-Bit) -->
<svg xmlns="http://www.w3.org/2000/svg" xml:space="preserve" width="150px" height="150px" version="1.1" style="shape-rendering:geometricPrecision; text-rendering:geometricPrecision; image-rendering:optimizeQuality; fill-rule:evenodd; clip-rule:evenodd"
viewBox="0 0 80.93 80.93"
 xmlns:xlink="http://www.w3.org/1999/xlink"
 xmlns:xodm="http://www.corel.com/coreldraw/odm/2003">
 <defs>
  <style type="text/css">
   <![CDATA[
    .str1 {stroke:#231F20;stroke-width:0.99;stroke-linejoin:bevel;stroke-miterlimit:22.9256}
    .str0 {stroke:#231F20;stroke-width:2.47;stroke-linejoin:bevel;stroke-miterlimit:22.9256}
    .fil0 {fill:none}
    .fil2 {fill:none;fill-rule:nonzero}
    .fil1 {fill:#FFC328;fill-rule:nonzero}
   ]]>
  </style>
 </defs>
 <g id="Слой_x0020_1">
  <metadata id="CorelCorpID_0Corel-Layer"/>
  <g id="_2695176371344">
   <rect class="fil0" width="80.93" height="80.93"/>
   <g>
    <path class="fil1" d="M55.4 49.81c-0.14,-4.49 -0.45,-8.98 -1.36,-13.4 -0.24,-1.16 -2.06,-0.67 -1.82,0.5 0.02,0.09 0.03,0.18 0.05,0.27 -0.19,-0.01 -0.39,0.02 -0.56,0.11 -0.18,0.08 -0.33,0.22 -0.43,0.38 -0.15,0.04 -0.29,0.12 -0.39,0.23 -0.11,0.11 -0.19,0.25 -0.22,0.4 -0.79,2.86 -1.42,5.75 -1.17,8.66 -0.11,0.16 -0.16,0.35 -0.14,0.54 0.2,3.23 0.53,6.44 0.97,9.64l0 1.09c-0.01,0.19 0.04,0.38 0.15,0.53 0.12,0.16 0.28,0.27 0.46,0.32 0.27,0.09 0.56,0.08 0.82,-0.02 0.27,-0.11 0.47,-0.31 0.59,-0.57 0.99,-2.62 0.81,-5.4 0.76,-8.16 -0.03,-1.73 -0.06,-3.46 -0.08,-5.19 0.07,-0.68 0.1,-1.36 0.09,-2.04 0.19,1.99 0.3,3.99 0.38,6 0.12,3.58 0.79,7.88 -1.16,11.12 -0.62,1.03 1.02,1.97 1.63,0.94 2.04,-3.41 1.54,-7.56 1.43,-11.35z"/>
    <path class="fil1" d="M26.63 35.03c0.84,-0.86 -0.5,-2.18 -1.34,-1.31 -1.11,1.17 -1.98,2.54 -2.56,4.04 -0.15,-0.09 -0.31,-0.13 -0.48,-0.14 -0.17,0 -0.34,0.04 -0.49,0.11 -0.16,0.07 -0.29,0.18 -0.39,0.31 -0.1,0.14 -0.16,0.29 -0.19,0.46 -0.12,1.11 -0.22,2.22 -0.28,3.34 -1.21,6.21 -1.01,12.6 0.59,18.73 0.06,0.43 0.25,0.84 0.55,1.16 0.12,0.12 0.27,0.21 0.43,0.25 0.16,0.04 0.33,0.04 0.49,-0.01l0.21 -0.08c0.2,-0.05 0.37,-0.17 0.49,-0.33 0.13,-0.16 0.2,-0.36 0.2,-0.56l0 -0.18c-0.02,-0.15 -0.07,-0.3 -0.17,-0.43 -0.09,-0.13 -0.21,-0.24 -0.36,-0.31l-0.14 -0.58c0.2,-0.08 0.36,-0.23 0.47,-0.42 0.1,-0.19 0.13,-0.41 0.09,-0.63 -0.53,-2.96 -0.87,-5.96 -1.01,-8.97 0.03,-0.81 0.07,-1.63 0.14,-2.44 0.31,-4.06 0.74,-8.91 3.75,-12.01z"/>
    <path class="fil1" d="M66.59 29.17c-0.82,-3.44 -2.51,-6.6 -4.44,-9.55 -0.04,-0.06 -0.08,-0.11 -0.13,-0.16 -0.05,-0.1 -0.12,-0.2 -0.21,-0.28 -2.28,-2.09 -4.71,-4 -7.28,-5.73 -1.21,-0.8 -2.41,-1.48 -3.87,-1.71 -1.43,-0.16 -2.84,-0.44 -4.21,-0.83 -5.13,-1.61 -11.05,-0.74 -15.91,1.32 -10.27,4.36 -16.44,14.96 -15.29,25.82 0.01,0.17 0.07,0.34 0.18,0.48 0.1,0.13 0.24,0.24 0.4,0.31 -0.38,0.24 -0.74,0.52 -1.07,0.82 -2.58,-4.17 -1.52,-9.12 0.38,-13.35 1.85,-4.11 4.12,-8.12 7.44,-11.23 1.34,-1.22 2.8,-2.31 4.36,-3.25 0.1,0 0.21,-0.01 0.31,-0.05 4.85,-1.59 9.85,-3.06 15.04,-2.82 0.11,0.11 0.25,0.2 0.41,0.24 0.16,0.04 0.32,0.04 0.48,-0.01 0.17,-0.04 0.33,-0.08 0.5,-0.12 2.14,0.27 4.23,0.88 6.17,1.8 1.96,0.9 3.83,1.89 5.99,2.28 0.24,0.04 0.49,0 0.69,-0.12 0.21,-0.12 0.36,-0.32 0.42,-0.55 0.07,-0.23 0.04,-0.47 -0.07,-0.68 -0.12,-0.21 -0.31,-0.37 -0.53,-0.44 -3.11,-1.02 -5.91,-3.11 -9,-3.92 0.05,-0.19 0.04,-0.39 -0.03,-0.57 -0.07,-0.18 -0.19,-0.33 -0.35,-0.44 -1.77,-1.22 -4.22,-0.95 -6.29,-0.8 -2.4,0.18 -4.78,0.61 -7.09,1.28 -4.61,1.31 -8.83,3.66 -12.34,6.86 -3.81,3.54 -6.44,8.25 -8.36,12.99 -1.85,4.56 -2.44,9.8 0.38,14.09 0.06,0.09 0.14,0.17 0.23,0.24 -1.05,1.57 -1.7,3.37 -1.87,5.25 -0.29,2.45 -0.1,4.93 0.53,7.31 0.64,2.19 2.15,3.91 3.66,5.56 0.83,0.91 2.08,-0.39 1.34,-1.31 -2.04,-2.54 -2.68,-6.7 -2.52,-9.85 0.2,-3.98 2.91,-6.22 6.04,-8.34 1,-0.67 0.05,-2.28 -0.96,-1.6l-0.18 0.13c-0.1,-0.18 -0.26,-0.32 -0.44,-0.4 -0.19,-0.08 -0.4,-0.1 -0.6,-0.06 -0.46,0.09 -0.92,0.22 -1.37,0.39 0.01,-0.04 0.01,-0.08 0,-0.12 -1.05,-10.01 4.37,-19.76 13.81,-23.98 4.84,-2.16 10.47,-2.81 15.56,-1.18 1.06,0.32 2.15,0.53 3.25,0.62 1.52,0.16 2.58,0.74 3.82,1.55 2.43,1.64 4.74,3.45 6.9,5.43 0,0.02 0.02,0.03 0.03,0.05 1.86,2.84 3.48,5.81 4.26,9.12 0.4,1.65 0.55,3.35 0.44,5.04 -0.11,1.6 -0.82,3.05 -0.94,4.6 0.01,0.2 0.08,0.4 0.2,0.56 0.13,0.16 0.3,0.28 0.5,0.33l0.18 0.07c0.16,0.05 0.33,0.05 0.49,0.01 0.17,-0.04 0.31,-0.12 0.43,-0.24l0.11 -0.12c0.16,-0.16 0.26,-0.37 0.27,-0.59 0,-0.22 -0.07,-0.44 -0.22,-0.61 0.23,-1.44 0.83,-2.84 0.9,-4.34 0.06,-1.75 -0.11,-3.5 -0.53,-5.2z"/>
    <path class="fil1" d="M31.17 59.08c1.4,-3.74 2.14,-7.69 2.17,-11.68 0.07,-0.1 0.11,-0.22 0.13,-0.34 0.5,-2.44 0.6,-4.93 0.3,-7.4 -0.01,-0.14 -0.05,-0.27 -0.12,-0.39 -0.06,-0.12 -0.15,-0.22 -0.26,-0.31l0.04 -0.24c0.02,-0.1 0.01,-0.21 -0.01,-0.32 -0.03,-0.1 -0.08,-0.2 -0.15,-0.29 0.27,-0.49 -0.13,-1.18 -0.73,-1.31 -0.02,-0.04 -0.03,-0.07 -0.05,-0.1 1.04,-0.27 0.53,-1.92 -0.62,-1.75 -2.65,0.37 -4.04,2.26 -4.6,4.68 -0.73,3.21 -0.9,6.52 -0.51,9.8 -0.09,0.13 -0.13,0.29 -0.14,0.45 -0.17,4.12 0.37,8.24 1.59,12.19 0.3,0.99 1.71,0.75 1.85,-0.07 0.16,0.03 0.32,0.02 0.47,-0.03 0.15,-0.05 0.29,-0.13 0.4,-0.25 0.1,-0.11 0.18,-0.25 0.22,-0.4 0.04,-0.15 0.04,-0.31 0.01,-0.46 -0.12,-0.44 -0.22,-0.89 -0.33,-1.33 0.16,-0.11 0.27,-0.27 0.34,-0.45z"/>
    <path class="fil1" d="M64.46 57.88c-1.35,0.44 -2.67,0.97 -3.96,1.56 0.68,-3.22 0.2,-6.55 -0.1,-9.81 -0.39,-4.14 -0.78,-8.28 -1.17,-12.41 -0.11,-1.18 -2,-1.19 -1.89,0 0.37,3.9 0.73,7.8 1.09,11.7 0.35,3.75 1.08,7.69 -0.1,11.36 -0.33,1 1.06,1.48 1.64,0.82 0.11,0.1 0.25,0.17 0.4,0.21 0.15,0.04 0.3,0.04 0.45,0 -0.64,2.93 -4.18,4.41 -6.82,5.39 -2.89,1.06 -5.93,1.67 -9.02,1.81 -0.21,0 -0.42,0.08 -0.58,0.22 -0.07,-0.03 -0.14,-0.05 -0.22,-0.07l-0.04 -0.11c-0.1,-0.23 -0.27,-0.41 -0.49,-0.52 -0.23,-0.12 -0.48,-0.15 -0.73,-0.1 -0.14,-0.08 -0.29,-0.14 -0.45,-0.2l-0.16 -0.04 -0.03 -0.03c-0.38,-0.29 -0.84,-0.45 -1.32,-0.45 -0.49,0 -0.95,0.16 -1.33,0.45 -0.43,-0.14 -0.9,-0.16 -1.33,-0.04 -0.44,0.12 -0.83,0.37 -1.13,0.7 -0.13,0.07 -0.25,0.18 -0.33,0.3 -0.08,0.13 -0.13,0.27 -0.14,0.42 -0.66,1.38 -0.3,3.3 1.04,4.18l0.05 0.05c0.2,0.15 0.43,0.25 0.68,0.29 0.1,0.03 0.2,0.05 0.31,0.06 0.03,0.12 0.08,0.23 0.16,0.33 0.07,0.1 0.17,0.19 0.27,0.25 0.11,0.06 0.23,0.11 0.36,0.12 0.12,0.02 0.25,0.01 0.37,-0.02 0.15,-0.03 0.3,-0.06 0.45,-0.11 0.1,0.01 0.2,0.03 0.31,0.03 0.17,0.16 0.39,0.25 0.63,0.25 1.08,-0.03 2.52,0.13 3.23,-0.86 0.11,-0.15 0.19,-0.32 0.25,-0.5 0.18,-0.06 0.33,-0.19 0.43,-0.35 0.11,-0.16 0.15,-0.34 0.13,-0.53 0.15,-0.62 0.12,-1.28 -0.09,-1.88 3.89,-0.2 7.71,-1.12 11.26,-2.69 3.12,-1.41 6.18,-3.52 6.25,-7.2 0.71,-0.29 1.43,-0.55 2.15,-0.79 1.18,-0.38 0.69,-2.17 -0.48,-1.79z"/>
    <path class="fil2 str0" d="M55.91 34.84c-2.1,-0.62 -4.26,0.97 -5.44,2.79 -0.89,1.38 -1.47,2.94 -1.69,4.56 -0.17,1.64 -0.16,3.29 0.03,4.93 0.26,3.16 0.52,6.34 1.26,9.44 0.44,1.87 1.13,3.79 2.56,5.1 0.6,0.55 1.34,0.93 2.14,1.11 0.8,0.18 1.63,0.14 2.41,-0.1 0.49,-0.14 3.27,-1.97 3.32,-1.69 0.22,1.42 -0.88,3 -1.99,3.93 -1.1,0.94 -2.5,1.49 -3.87,1.97 -2.46,0.89 -5.06,1.7 -7.67,1.4 -1.89,-0.23 -3.67,-1.04 -5.55,-1.32 -1.88,-0.29 -4.1,0.13 -5.09,1.72 -1.14,1.86 0,4.39 1.83,5.61 1.75,1.17 4.29,1.42 5.96,0.13 0.64,-0.49 1.14,-1.17 1.86,-1.51 0.57,-0.21 1.16,-0.32 1.77,-0.32 4.04,-0.28 8.1,-1.37 11.4,-3.67 1.66,-1.15 3.03,-2.64 4.04,-4.37 1.01,-1.72 1.63,-3.64 1.8,-5.61 4.24,-2.97 6.19,-8.72 4.59,-13.56 -0.31,-0.95 -0.22,-1.97 -1.14,-2.4 1.9,-1.91 1.81,-4.92 1.59,-7.57 -0.27,-3.5 -0.56,-7.04 -1.76,-10.38 -0.75,-2 -1.75,-3.9 -2.99,-5.66 -5.55,-8.02 -15,-13.49 -24.88,-13.76 -9.89,-0.27 -19.87,4.93 -24.66,13.4 -1.08,1.98 -1.98,4.06 -2.69,6.2 -1.95,5.57 -3.34,12.32 -0.2,17.34 -0.19,0.65 -0.46,1.28 -0.81,1.86 -0.8,1.6 -1.23,3.37 -1.25,5.16 -0.02,1.79 0.37,3.56 1.14,5.18 0.4,0.82 0.91,1.58 1.52,2.26 2.27,2.53 5.93,3.41 9.37,3.81 0.62,1.35 1.51,2.91 3.03,2.87 1.14,-0.01 2.26,-0.3 3.25,-0.84 1,-0.55 1.84,-1.33 2.45,-2.27 1.31,-1.96 1.82,-4.33 2.18,-6.64 0.62,-3.99 0.89,-8.02 0.81,-12.05 -0.05,-2.02 -0.25,-4.2 -1.59,-5.73 -1.14,-1.28 -2.87,-1.85 -4.55,-2.3 -0.85,-0.22 -1.74,-0.42 -2.6,-0.23 -0.86,0.2 -1.67,0.88 -1.65,1.76"/>
    <path class="fil2 str0" d="M24.6 34.8c-0.59,0.2 -1.1,0.58 -1.46,1.08 -0.36,0.51 -0.54,1.1 -0.53,1.72 -2.07,0.19 -4.69,0.92 -6.22,2.3 -1.46,-8.11 1.89,-17.31 8.33,-22.58 4.82,-3.85 10.93,-5.82 17.15,-5.51 6.2,0.35 12.08,2.78 16.67,6.88 1.35,1.2 2.54,2.55 3.56,4.02 1.59,2.39 2.61,5.1 2.96,7.93 0.35,2.83 0.04,5.7 -0.92,8.39 -1.29,-1.7 -4.28,-1.14 -6.01,-2.41 -0.92,-0.67 -1.45,-1.89 -2.56,-2.16"/>
    <path class="fil2 str1" d="M12.82 42.79c0.69,-1.29 1.65,-2.42 2.83,-3.3 0.08,-0.06 0.17,-0.15 0.12,-0.24 -0.04,-0.09 -0.2,0.05 -0.1,0.07"/>
    <path class="fil2 str1" d="M60.88 61.13c1.56,-0.44 3.03,-1.12 4.37,-2.02"/>
    <path class="fil2 str1" d="M44.06 67.7c0.71,0.64 1.24,1.45 1.55,2.35 0.31,0.9 0.38,1.86 0.2,2.79"/>
    <path class="fil2 str1" d="M32.31 36.46c-0.86,-0.72 -2.27,-0.39 -3.03,0.41 -0.76,0.81 -1.07,1.94 -1.26,3.02 -0.73,3.89 -0.68,7.86 -0.63,11.8 0.05,3.63 0.15,7.45 2.04,10.57"/>
    <path class="fil2 str1" d="M51.34 36.83c0.6,-0.12 1.13,0.44 1.39,0.98 0.69,1.36 0.7,2.94 0.7,4.45l-0.02 9.47c0,3.07 -0.06,6.32 -1.71,8.94"/>
    <path class="fil2 str1" d="M23.45 35.64c-2.64,9.02 -2.51,18.59 0.38,27.53"/>
    <path class="fil2 str1" d="M57.81 37.26c1.17,4.33 1.97,8.76 2.4,13.22 0.38,3.55 0.54,7.21 -0.58,10.61"/>
    <path class="fil2 str1" d="M64.6 38.76c1.18,2.23 4.04,3.44 4.57,5.88"/>
    <path class="fil2 str1" d="M23.13 10.72c0.45,0.31 0.75,0.78 1.17,1.12 1.52,1.19 3.7,0.29 5.47,-0.47 3.67,-1.55 7.65,-2.29 11.66,-2.17 4,0.11 7.92,1.09 11.5,2.84 0.79,0.47 1.65,0.81 2.55,1.02 0.91,0.15 1.95,-0.07 2.49,-0.8l-1.08 0.11"/>
    <path class="fil2 str1" d="M33.53 41.37c-0.37,-0.05 -0.75,0.01 -1.09,0.16 -0.34,0.16 -0.63,0.4 -0.84,0.7 -0.4,0.62 -0.66,1.31 -0.76,2.04 -0.75,3.94 -0.31,8.01 1.29,11.7 0.01,0.05 0.04,0.1 0.07,0.14 0.04,0.04 0.08,0.07 0.13,0.1 0.1,0.04 0.24,-0.07 0.18,-0.17"/>
    <path class="fil2 str1" d="M49.24 41.46c0.05,-0.21 0.38,-0.06 0.49,0.12 1.26,1.99 1.89,4.3 1.79,6.64 -0.09,2.34 -0.9,4.59 -2.31,6.48"/>
    <path class="fil2 str1" d="M28.3 39.76c0.19,-0.1 0.39,-0.15 0.6,-0.15 0.21,0 0.41,0.05 0.6,0.15"/>
    <line class="fil2 str1" x1="27.74" y1="41.63" x2="29.49" y2= "41.63" />
    <path class="fil2 str1" d="M27.73 40.54c-0.66,-0.15 -1.35,-0.19 -2.03,-0.1"/>
    <path class="fil2 str1" d="M28.11 38.7c-0.4,-0.45 -0.84,-0.87 -1.31,-1.27"/>
    <path class="fil2 str1" d="M25.57 52.45c0.57,0.16 1.18,0.15 1.74,-0.03 0.47,0.07 0.96,0.02 1.41,-0.15l-0.38 0.3"/>
    <polyline class="fil2 str1" points="27.6,53.82 28.95,53.77 28.52,53.85 "/>
    <path class="fil2 str1" d="M27.41 54.93c-0.49,-0.08 -0.99,-0.14 -1.48,-0.18 -0.07,-0.01 -0.13,0 -0.19,0.03 -0.05,0.04 -0.07,0.13 0,0.16"/>
    <path class="fil2 str1" d="M27.22 61.02c0.44,-0.13 0.84,-0.35 1.18,-0.66 0.08,0.41 0.1,0.82 0.04,1.24 -0.32,0.07 -0.62,0.24 -0.84,0.48"/>
    <path class="fil2 str1" d="M53.05 37.58c0.39,-0.39 0.89,-0.65 1.44,-0.74l-0.15 0.26"/>
    <path class="fil2 str1" d="M52.9 39.04c0.61,-0.52 1.36,-0.88 2.15,-1.05"/>
    <path class="fil2 str1" d="M53.47 44.47c0.64,0.09 1.3,0.07 1.94,-0.06 -0.04,0.1 -0.11,0.19 -0.2,0.25"/>
    <path class="fil2 str1" d="M53.08 45.59c0.72,0.14 1.44,0.23 2.17,0.27l-0.57 0.18"/>
    <polyline class="fil2 str1" points="53.71,48.45 54.97,48.51 54.68,48.69 "/>
    <path class="fil2 str1" d="M53.27 52c-0.53,0.03 -1.07,-0.02 -1.59,-0.14l0.23 0.15"/>
    <polyline class="fil2 str1" points="53.32,54.65 51.69,53.56 51.77,53.66 "/>
    <path class="fil2 str1" d="M52.95 57.24c0.43,0.52 0.84,1.05 1.24,1.59l-0.04 -0.25"/>
    <line class="fil2 str1" x1="53.51" y1="56.7" x2="54.59" y2= "57.14" />
    <path class="fil2 str1" d="M53.35 46.41c-0.27,-0.06 -0.55,-0.06 -0.82,0"/>
    <path class="fil2 str1" d="M14.74 47.14c0.48,1.48 0.87,2.99 1.17,4.52 -0.53,-1.4 -0.86,-2.87 -0.97,-4.36 -0.02,-0.09 -0.01,-0.18 0.02,-0.27 0.04,-0.08 0.11,-0.15 0.19,-0.19 0.14,-0.09 0.29,-0.14 0.46,-0.16 0.16,-0.01 0.32,0 0.48,0.05 0.16,0.05 0.3,0.14 0.42,0.25 0.12,0.11 0.21,0.24 0.28,0.39 0.18,0.51 -0.04,1.08 -0.31,1.55 -0.24,0.44 -0.52,0.84 -0.84,1.23 0.97,0.28 1.88,0.72 2.7,1.29"/>
    <path class="fil2 str1" d="M63.6 45.61c-0.05,0.47 -0.05,0.95 0.03,1.42 0.09,1.21 0,2.41 -0.29,3.59 0.09,-0.08 0.2,-0.13 0.32,-0.15 0.12,-0.03 0.24,-0.03 0.36,0.01l1.79 0.21c0.05,0 0.09,0 0.14,0.02 0.04,0.02 0.08,0.05 0.11,0.08 0.05,0.09 -0.04,0.22 -0.12,0.17"/>
    <path class="fil2 str1" d="M23.53 44.89c-0.14,-0.15 -0.33,-0.26 -0.53,-0.32"/>
    <path class="fil2 str1" d="M24.74 46.84c-0.1,0.03 -0.19,0.09 -0.26,0.18 -0.06,0.08 -0.09,0.19 -0.07,0.3"/>
    <line class="fil2 str1" x1="23.25" y1="51.3" x2="23.2" y2= "51.39" />
    <path class="fil2 str1" d="M24.6 57.83c-0.02,0.14 -0.02,0.29 0.03,0.43"/>
    <line class="fil2 str1" x1="29.63" y1="56.69" x2="29.97" y2= "56.77" />
    <line class="fil2 str1" x1="28.85" y1="46.7" x2="29.49" y2= "46.08" />
    <line class="fil2 str1" x1="27.4" y1="36.36" x2="27.4" y2= "36.08" />
    <path class="fil2 str1" d="M24.74 39.08c-0.1,-0.07 -0.22,-0.11 -0.34,-0.1l0.2 0.24"/>
    <path class="fil2 str1" d="M31.15 40.6c0.03,-0.07 0.07,-0.14 0.12,-0.19 0.06,-0.05 0.12,-0.09 0.2,-0.11 0.07,-0.03 0.15,-0.03 0.22,-0.02 0.08,0 0.15,0.03 0.22,0.07"/>
    <path class="fil2 str1" d="M51.21 40.5c0.01,-0.03 0.02,-0.05 0.04,-0.07 0.02,-0.02 0.05,-0.04 0.07,-0.05 0.03,-0.02 0.06,-0.02 0.09,-0.02 0.03,0 0.06,0.01 0.08,0.02"/>
    <path class="fil2 str1" d="M51.44 42.58c0.15,0.06 0.27,0.18 0.33,0.33"/>
    <line class="fil2 str1" x1="56.42" y1="41.82" x2="56.46" y2= "41.54" />
    <path class="fil2 str1" d="M56.01 39.65c0.01,-0.07 0.06,-0.14 0.12,-0.18 0.06,-0.03 0.17,0 0.16,0.08"/>
    <path class="fil2 str1" d="M57.14 47.05c0.11,-0.04 0.23,-0.05 0.35,-0.02 0.11,0.02 0.22,0.08 0.3,0.17"/>
    <path class="fil2 str1" d="M55.74 50.25l-0.49 0.4c0.05,0.03 0.11,0.04 0.17,0.03"/>
    <line class="fil2 str1" x1="58.25" y1="51.63" x2="58.6" y2= "51.94" />
    <path class="fil2 str1" d="M57.62 54.23c0,0.06 -0.01,0.12 -0.03,0.18 -0.02,0.06 -0.06,0.11 -0.1,0.15"/>
    <line class="fil2 str1" x1="55.63" y1="54.85" x2="55.48" y2= "55.03" />
    <path class="fil2 str1" d="M57.9 57.78c0.02,0.14 0.08,0.27 0.17,0.38 0.08,0.12 0.19,0.21 0.32,0.28"/>
    <line class="fil2 str1" x1="56.8" y1="59.81" x2="56.38" y2= "60.3" />
    <line class="fil2 str1" x1="55.21" y1="60.57" x2="55.11" y2= "60.67" />
    <line class="fil2 str1" x1="52.11" y1="55.98" x2="51.92" y2= "56.03" />
    <line class="fil2 str1" x1="18.31" y1="43.1" x2="18.36" y2= "42.86" />
    <path class="fil2 str1" d="M19.13 49.21c0.15,-0.02 0.3,-0.01 0.44,0.03"/>
    <path class="fil2 str1" d="M17.88 54.65c-0.07,0.16 -0.16,0.31 -0.29,0.44"/>
    <path class="fil2 str1" d="M14.54 53.66c-0.03,0.02 -0.05,0.05 -0.06,0.09 -0.01,0.03 0,0.07 0.01,0.1"/>
    <line class="fil2 str1" x1="61.93" y1="42.39" x2="61.93" y2= "42.3" />
    <path class="fil2 str1" d="M64.55 43.63c0.05,-0.04 0.11,-0.07 0.18,-0.09 0.06,-0.01 0.13,0 0.2,0.02"/>
    <path class="fil2 str1" d="M65.8 47.27c0.11,-0.02 0.22,0 0.33,0.05 -0.06,0.08 -0.14,0.14 -0.24,0.18"/>
    <line class="fil2 str1" x1="61.78" y1="54.23" x2="61.48" y2= "54.64" />
    <path class="fil2 str1" d="M63.72 54.91c0.12,0.18 0.28,0.33 0.47,0.44"/>
    <line class="fil2 str1" x1="63.52" y1="52.38" x2="63.52" y2= "52.05" />
    <path class="fil2 str1" d="M61.88 47.27l0 -0.46c0.04,0.23 0.11,0.46 0.19,0.68"/>
    <path class="fil2 str1" d="M67.92 49.83c0.09,-0.07 0.2,-0.1 0.31,-0.1 0.11,0 0.22,0.03 0.3,0.1 0.01,0.06 0,0.13 -0.04,0.19 -0.03,0.05 -0.07,0.1 -0.13,0.13"/>
    <path class="fil2 str1" d="M62.84 58.35c-0.01,0.13 -0.05,0.26 -0.13,0.37"/>
    <path class="fil2 str1" d="M20.02 57.54l0 0.24c0.03,0 0.05,0 0.07,-0.01 0.03,-0.01 0.05,-0.02 0.07,-0.04"/>
    <path class="fil2 str1" d="M13.23 33.32c-0.04,-0.01 -0.07,0 -0.11,0.01 -0.04,0.01 -0.07,0.03 -0.1,0.06 -0.03,0.02 -0.05,0.05 -0.07,0.09 -0.01,0.03 -0.02,0.07 -0.02,0.1"/>
    <path class="fil2 str1" d="M13.43 37.18l-0.22 0.34c0.1,-0.1 0.17,-0.21 0.22,-0.34z"/>
    <path class="fil2 str1" d="M15.12 26.43c0.09,-0.17 0.15,-0.37 0.15,-0.56"/>
    <line class="fil2 str1" x1="18.26" y1="22.03" x2="18.16" y2= "21.53" />
    <line class="fil2 str1" x1="19.62" y1="17.58" x2="19.66" y2= "17.01" />
    <path class="fil2 str1" d="M23.2 15.07c0.06,-0.11 0.16,-0.2 0.28,-0.25"/>
    <path class="fil2 str1" d="M63.86 22.74c-0.14,0.1 -0.25,0.22 -0.34,0.37"/>
    <polyline class="fil2 str1" points="60.49,16.73 60.47,16.36 60.33,16.33 "/>
    <path class="fil2 str1" d="M64.05 18.93c-0.12,0.02 -0.22,0.09 -0.29,0.19 -0.07,0.1 -0.1,0.22 -0.08,0.34"/>
    <line class="fil2 str1" x1="67.97" y1="27.71" x2="67.44" y2= "27.85" />
    <path class="fil2 str1" d="M65.17 35.43c0.12,0 0.24,0.03 0.35,0.09 0.11,0.06 0.2,0.14 0.28,0.24"/>
    <path class="fil2 str1" d="M67.01 38.22c0.04,-0.2 0.14,-0.38 0.28,-0.53"/>
    <line class="fil2 str1" x1="68.94" y1="39.33" x2="69.32" y2= "39.85" />
    <path class="fil2 str1" d="M68.26 33.68c0.02,-0.19 0.09,-0.37 0.2,-0.52"/>
    <path class="fil2 str1" d="M15.52 30.98c0.01,0.08 0.05,0.15 0.11,0.21 0.06,0.07 0.13,0.11 0.21,0.14"/>
    <path class="fil2 str1" d="M25.25 10.26c0.36,0.45 0.8,0.84 1.29,1.14 0.5,0.3 1.09,0.44 1.67,0.39 0.06,0 0.13,-0.04 0.12,-0.09"/>
    <path class="fil2 str1" d="M27.46 9.22c0.28,0.34 0.59,0.66 0.92,0.95 0.29,0.28 0.64,0.51 1.01,0.66 0.2,0.08 0.4,0.11 0.6,0.11 0.21,-0.01 0.41,-0.06 0.59,-0.15"/>
    <path class="fil2 str1" d="M29.84 8.07c0.16,0.31 0.36,0.6 0.61,0.84 0.36,0.42 0.81,0.75 1.31,0.99 0.25,0.12 0.52,0.18 0.8,0.19 0.27,0.01 0.55,-0.04 0.8,-0.14"/>
    <path class="fil2 str1" d="M32.75 7c0.57,0.85 1.23,1.63 1.98,2.32 0.13,0.11 0.33,0.23 0.45,0.11"/>
    <path class="fil2 str1" d="M35.96 6.41c0.33,0.33 0.53,0.77 0.54,1.24 0.01,0.46 0.04,0.92 0.1,1.37 0.03,0 0.06,-0.01 0.08,-0.03 0.02,-0.02 0.04,-0.04 0.05,-0.07"/>
    <path class="fil2 str1" d="M39.06 6.17c0.18,0.46 0.28,0.95 0.29,1.45 -0.01,0.25 0.01,0.5 0.04,0.74 0.02,0.12 0.06,0.24 0.13,0.34 0.06,0.1 0.15,0.19 0.25,0.25"/>
    <path class="fil2 str1" d="M42.68 6.59c0.13,0.83 0.01,1.68 -0.33,2.45 -0.05,0.09 -0.08,0.22 0,0.27 0.14,-0.06 0.26,-0.15 0.37,-0.25"/>
    <path class="fil2 str1" d="M45.83 6.92c-0.04,0.49 -0.19,0.96 -0.43,1.38 -0.25,0.42 -0.58,0.79 -0.99,1.07"/>
    <path class="fil2 str1" d="M47.62 7.8c-0.02,0 0,-0.05 0.03,-0.03 0.04,0.01 0.03,0.04 0.03,0.06 -0.05,0.7 -0.35,1.36 -0.86,1.86 -0.05,0.04 -0.09,0.1 -0.11,0.17 -0.01,0.03 -0.01,0.07 0.01,0.1 0.02,0.03 0.05,0.05 0.08,0.06"/>
    <path class="fil2 str1" d="M50.39 8.26c-0.27,0.79 -0.8,1.46 -1.51,1.92"/>
    <path class="fil2 str1" d="M53.12 9.25c-0.38,0.89 -1.26,1.45 -2.09,1.95"/>
    <path class="fil2 str1" d="M55.55 11.28l0.02 -0.11c-0.46,0.45 -1.02,0.8 -1.63,1.02"/>
    <path class="fil2 str1" d="M49.27 70.41c0.25,0.13 0.53,0.22 0.81,0.26"/>
    <line class="fil2 str1" x1="55.55" y1="68.81" x2="55.93" y2= "68.48" />
    <path class="fil2 str1" d="M59.85 66.87c0.14,-0.03 0.27,-0.09 0.38,-0.18"/>
    <line class="fil2 str1" x1="60.77" y1="62.14" x2="61.39" y2= "62.19" />
    <path class="fil2 str1" d="M60.68 63.74c0.22,0.11 0.46,0.17 0.71,0.2"/>
    <path class="fil2 str1" d="M63.37 62.75c0.02,-0.09 0,-0.19 -0.05,-0.27 -0.05,-0.09 -0.13,-0.14 -0.23,-0.17"/>
   </g>
  </g>
 </g>
</svg>
