<?xml version="1.0" encoding="UTF-8"?>
<!DOCTYPE svg PUBLIC "-//W3C//DTD SVG 1.1//EN" "http://www.w3.org/Graphics/SVG/1.1/DTD/svg11.dtd">
<!-- Creator: CorelDRAW 2020 (64-Bit) -->
<svg xmlns="http://www.w3.org/2000/svg" xml:space="preserve" width="150px" height="150px" version="1.1" style="shape-rendering:geometricPrecision; text-rendering:geometricPrecision; image-rendering:optimizeQuality; fill-rule:evenodd; clip-rule:evenodd"
viewBox="0 0 37.38 37.38"
 xmlns:xlink="http://www.w3.org/1999/xlink"
 xmlns:xodm="http://www.corel.com/coreldraw/odm/2003">
 <defs>
  <style type="text/css">
   <![CDATA[
    .str3 {stroke:#231F20;stroke-width:0.47;stroke-miterlimit:22.9256}
    .str2 {stroke:#231F20;stroke-width:0.47;stroke-linejoin:bevel;stroke-miterlimit:22.9256}
    .str1 {stroke:#231F20;stroke-width:0.71;stroke-linejoin:bevel;stroke-miterlimit:22.9256}
    .str0 {stroke:#231F20;stroke-width:1.17;stroke-linejoin:bevel;stroke-miterlimit:22.9256}
    .fil0 {fill:none}
    .fil2 {fill:none;fill-rule:nonzero}
    .fil1 {fill:#FFC328;fill-rule:nonzero}
   ]]>
  </style>
 </defs>
 <g id="Слой_x0020_1">
  <metadata id="CorelCorpID_0Corel-Layer"/>
  <g id="_2659400098384">
   <rect class="fil0" width="37.38" height="37.38"/>
   <g>
    <path class="fil1" d="M17.1 13.02l-0.52 -0.43c-0.04,-0.03 -0.09,-0.06 -0.15,-0.08 -0.03,-0.1 -0.09,-0.18 -0.17,-0.24l-0.11 -0.08c-0.03,-0.03 -0.07,-0.05 -0.11,-0.06l-0.17 -0.21c-0.23,-0.28 -0.64,-0.03 -0.65,0.28l0 0.02c-0.07,0.01 -0.13,0.04 -0.17,0.09 -0.05,0.05 -0.08,0.11 -0.09,0.18 -0.06,0.35 -0.1,0.71 -0.13,1.07 -0.02,0.02 -0.03,0.04 -0.04,0.06 -0.06,0.02 -0.12,0.05 -0.17,0.1l-0.45 0.49c-0.04,-0.01 -0.09,-0.02 -0.14,-0.01 -0.04,0.01 -0.09,0.03 -0.12,0.06l-1.43 1.05c-0.05,-0.01 -0.1,-0.01 -0.15,0 -0.05,0.02 -0.1,0.04 -0.14,0.07 0.02,-0.09 0.01,-0.19 -0.04,-0.28 -0.05,-0.08 -0.12,-0.15 -0.21,-0.17 -1.11,-0.36 -2.36,-0.6 -3.38,-1.13 -0.96,-0.49 -1.71,-2.12 -1.7,-3.17 0,-0.05 -0.01,-0.09 -0.02,-0.14 -0.02,-0.04 -0.04,-0.08 -0.08,-0.12 -0.03,-0.03 -0.07,-0.06 -0.11,-0.08 -0.04,-0.02 -0.09,-0.03 -0.14,-0.03 0,-0.08 0.01,-0.16 0.03,-0.23 0.03,-0.3 -0.22,-0.42 -0.45,-0.36 -0.03,-0.2 -0.13,-0.38 -0.29,-0.5 -0.04,-0.05 -0.1,-0.08 -0.16,-0.1 -0.06,-0.01 -0.13,-0.02 -0.19,0 -0.3,-0.21 -0.69,0.14 -0.56,0.49 -0.05,0.05 -0.08,0.13 -0.09,0.2 0,0.08 0.02,0.16 0.06,0.23 0.26,0.41 0.49,0.84 0.71,1.28 0.1,0.36 0.2,0.72 0.33,1.07 0.2,0.57 0.4,1.1 0.92,1.43 0,0.01 0,0.01 0,0.01 0.18,0.72 0.84,0.95 1.47,1.18 1.03,0.38 2.09,0.68 3.17,0.91 0.07,0.02 0.16,0.01 0.23,-0.02 0.07,-0.03 0.14,-0.09 0.18,-0.16 0.05,0 0.1,-0.02 0.15,-0.05 -0.01,0.04 -0.01,0.08 0,0.12 -0.02,0.05 -0.02,0.1 -0.02,0.15 0.01,0.05 0.02,0.1 0.05,0.14 0.02,0.04 0.05,0.08 0.09,0.11 0.04,0.03 0.08,0.06 0.13,0.07 0.11,0.04 0.22,0.06 0.33,0.06 0.2,0.18 0.41,0.33 0.65,0.45 0.11,0.23 0.5,0.32 0.67,0.06 0.05,-0.01 0.11,-0.04 0.15,-0.08l0.42 -0.36c0.1,0 0.2,-0.04 0.27,-0.12 0.3,-0.28 0.59,-0.58 0.85,-0.9 0.07,-0.08 0.1,-0.17 0.1,-0.27l0.04 -0.04c0.13,-0.15 0.25,-0.3 0.37,-0.45l0.01 -0.02 0.62 -0.67c0.12,-0.1 0.24,-0.2 0.35,-0.31 0.03,-0.04 0.06,-0.08 0.08,-0.13 0.02,-0.05 0.03,-0.1 0.03,-0.15 0.01,-0.05 0,-0.11 -0.02,-0.15 -0.02,-0.05 -0.05,-0.1 -0.09,-0.13z"/>
    <path class="fil1" d="M25.43 21.31c-0.02,-0.03 -0.04,-0.05 -0.07,-0.07l-0.25 -0.32 -0.46 -0.58c-0.01,-0.03 -0.02,-0.07 -0.03,-0.1 -0.02,-0.07 -0.07,-0.14 -0.12,-0.19 -0.06,-0.05 -0.13,-0.08 -0.2,-0.09 -0.08,-0.01 -0.15,0 -0.22,0.04 -0.07,0.03 -0.12,0.08 -0.16,0.15 -0.05,0.07 -0.09,0.15 -0.13,0.23 -0.1,0.02 -0.19,0.05 -0.28,0.11 -0.08,0.05 -0.15,0.13 -0.21,0.21 -0.06,0.02 -0.11,0.06 -0.15,0.11 -0.16,0.18 -0.3,0.37 -0.44,0.56 -0.09,0.01 -0.18,0.05 -0.24,0.11l-2.02 1.96c-0.05,0.05 -0.09,0.12 -0.1,0.19 -0.02,0.07 -0.01,0.15 0.02,0.21 -0.04,0.03 -0.08,0.07 -0.11,0.12 -0.03,0.05 -0.04,0.1 -0.04,0.15 -0.01,0.06 0,0.11 0.03,0.16 0.02,0.05 0.05,0.09 0.09,0.13l0.73 0.62c0.03,0.03 0.08,0.06 0.12,0.08 0.11,0.19 0.21,0.38 0.29,0.59 0.17,0.38 0.7,0.15 0.72,-0.2 0.06,-1.25 1.72,-2.33 2.55,-3.1 0.03,-0.03 0.05,-0.06 0.07,-0.1 0.16,-0.07 0.32,-0.12 0.49,-0.16 0.13,0.02 0.26,-0.02 0.37,-0.1 0.07,-0.05 0.13,-0.12 0.16,-0.2 0.03,-0.09 0.03,-0.18 0.01,-0.26 -0.03,-0.09 -0.09,-0.16 -0.16,-0.21 -0.08,-0.04 -0.17,-0.06 -0.26,-0.05z"/>
    <path class="fil1" d="M12.8 7.51c-0.23,-0.54 -0.86,-0.94 -1.28,-1.33 -0.42,-0.38 -0.87,-0.75 -1.19,-1.22 -0.01,-0.09 -0.05,-0.18 -0.11,-0.24l-0.14 -0.15c-0.32,-0.31 -0.8,0.09 -0.6,0.47 0.44,0.86 1.23,1.45 1.92,2.08 0.18,0.16 0.45,0.33 0.58,0.53 0.2,0.34 0.1,0.78 0.02,1.13 -0.14,0.6 -0.35,1.19 -0.61,1.74 -0.21,0.46 0.45,0.85 0.66,0.4 0.41,-0.89 1.17,-2.42 0.75,-3.41z"/>
    <path class="fil1" d="M25.73 32.1c-0.91,-0.61 -1.68,-1.42 -2.25,-2.36 -0.58,-0.94 -0.95,-2 -1.09,-3.1 -0.06,-0.49 -0.83,-0.49 -0.77,0 0.15,1.24 0.56,2.42 1.2,3.48 0.64,1.06 1.5,1.96 2.52,2.64 0.41,0.29 0.8,-0.39 0.39,-0.66z"/>
    <path class="fil1" d="M28.41 32.16c-0.16,-0.19 -0.35,-0.59 -0.43,-0.71 -0.12,-0.15 -0.25,-0.32 -0.38,-0.48 -0.4,-0.49 -0.84,-0.94 -1.33,-1.35 -0.13,-0.1 -0.5,-0.31 -0.58,-0.45 -0.15,-0.27 0.12,-0.57 0.24,-0.8 0.34,-0.63 0.73,-1.22 1.17,-1.77 0.31,-0.39 -0.23,-0.94 -0.54,-0.55 -0.54,0.66 -1.02,1.39 -1.41,2.15 -0.25,0.49 -0.59,0.99 -0.13,1.44 0.62,0.59 1.32,1.03 1.88,1.69 0.34,0.4 0.6,0.83 0.91,1.26 0.11,0.2 0.29,0.35 0.51,0.41 0.06,0.02 0.13,0.02 0.2,0.01 0.06,-0.02 0.12,-0.06 0.17,-0.11l0.05 -0.06c0.05,-0.07 0.08,-0.14 0.09,-0.22 0.01,-0.08 -0.01,-0.16 -0.04,-0.23 -0.04,-0.07 -0.09,-0.13 -0.16,-0.17 -0.07,-0.04 -0.14,-0.06 -0.22,-0.06z"/>
    <path class="fil1" d="M14.15 20.97c-0.62,0.98 -1.46,1.79 -2.26,2.63 -0.85,0.89 -1.71,1.78 -2.56,2.67 -0.34,0.36 0.2,0.92 0.54,0.55l2.77 -2.89c0.78,-0.81 1.57,-1.61 2.17,-2.57 0.27,-0.42 -0.39,-0.81 -0.66,-0.39z"/>
    <path class="fil1" d="M28.8 13.92c-0.01,-0.04 -0.03,-0.09 -0.04,-0.13 0.04,-0.06 0.07,-0.13 0.07,-0.2 0.01,-0.08 -0.01,-0.15 -0.04,-0.21 -0.3,-0.63 -0.73,-1.19 -1.26,-1.63 -0.32,-0.35 -0.67,-0.68 -1.04,-0.97l-0.08 -0.06c-0.03,-0.03 -0.08,-0.05 -0.12,-0.06 -0.05,-0.02 -0.09,-0.02 -0.14,-0.01 -0.26,-0.28 -0.52,-0.55 -0.78,-0.84 -0.05,-0.05 -0.11,-0.09 -0.19,-0.1 -0.06,-0.11 -0.12,-0.2 -0.19,-0.3 -0.09,-0.19 -0.05,-0.29 0.08,-0.59 0.19,-0.43 0.43,-0.83 0.72,-1.2 0.6,-0.8 1.35,-1.47 2.21,-1.97 0.35,-0.21 0.17,-0.67 -0.17,-0.72 0.04,-0.08 0.08,-0.17 0.12,-0.25 0.18,-0.38 -0.28,-0.81 -0.6,-0.47 -0.14,0.15 -0.29,0.29 -0.43,0.42 -0.08,-0.03 -0.16,-0.05 -0.24,-0.04 -0.08,0.01 -0.16,0.04 -0.23,0.09 -0.15,0.12 -0.29,0.25 -0.43,0.38 -0.05,0 -0.11,0 -0.16,0.02 -0.06,0.02 -0.11,0.05 -0.14,0.09l-2.25 2.19c-0.05,0.04 -0.08,0.1 -0.1,0.16 -0.02,0.06 -0.02,0.12 -0.01,0.18 0.02,0.07 0.04,0.12 0.08,0.17 0.04,0.05 0.1,0.09 0.15,0.11 0.03,0.04 0.06,0.08 0.1,0.11 0.04,0.02 0.08,0.05 0.13,0.06 0.04,0.01 0.09,0.01 0.14,0 0.04,-0.01 0.09,-0.02 0.13,-0.05 0.02,0.07 0.07,0.12 0.13,0.17 0.05,0.04 0.12,0.07 0.19,0.08 -0.03,0.06 -0.07,0.12 -0.1,0.19 -0.07,-0.08 -0.13,-0.16 -0.2,-0.23 -0.05,-0.04 -0.11,-0.08 -0.17,-0.09 -0.06,-0.02 -0.13,-0.02 -0.19,0 -0.09,-0.06 -0.17,-0.12 -0.25,-0.18 -0.32,-0.22 -0.73,0.21 -0.53,0.53l0.04 0.06c-0.12,-0.05 -0.25,-0.09 -0.38,-0.12 -0.06,-0.02 -0.12,-0.02 -0.18,0 -0.06,0.01 -0.11,0.04 -0.16,0.08 -0.05,0.03 -0.08,0.09 -0.11,0.14 -0.02,0.06 -0.03,0.12 -0.03,0.18 -1.26,0.96 -2.39,2.09 -3.35,3.35 -1.97,1.93 -3.53,4.37 -5.84,5.87 -0.07,0.02 -0.13,0.06 -0.18,0.11l-0.03 0.03c-0.13,0.08 -0.26,0.15 -0.39,0.23 -0.06,0.03 -0.11,0.08 -0.15,0.14 -0.03,0.07 -0.04,0.14 -0.03,0.21 -0.97,0.95 -1.97,1.9 -2.74,3 -0.11,0.16 -0.22,0.32 -0.31,0.49 -0.42,0.51 -0.82,1.04 -1.18,1.6 -0.03,0.02 -0.05,0.04 -0.07,0.07 -0.79,0.94 -1.31,2.08 -1.51,3.3 -0.2,1.22 -0.56,2.35 -0.64,3.57 -0.07,0.12 -0.12,0.24 -0.15,0.37 -0.1,0.21 -0.18,0.42 -0.24,0.64 0,0.01 0,0.02 -0.01,0.03 0,0.01 -0.01,0.04 -0.01,0.07 0,0.02 -0.02,0.08 -0.03,0.12 -0.01,0.06 -0.01,0.12 0,0.17 0.01,0.06 0.03,0.12 0.07,0.17 0.04,0.04 0.08,0.08 0.13,0.11 0.06,0.03 0.11,0.04 0.17,0.04 0.3,-0.02 0.58,-0.13 0.82,-0.31 0.15,-0.11 0.32,-0.19 0.51,-0.21 0.18,-0.03 0.37,-0.01 0.54,0.05 0.07,0.03 0.15,0.04 0.23,0.01 0.07,-0.02 0.13,-0.07 0.17,-0.14 0.04,-0.02 0.07,-0.06 0.1,-0.09 0.02,-0.04 0.04,-0.08 0.04,-0.13 0.01,-0.04 0.01,-0.09 -0.01,-0.13 -0.01,-0.04 -0.03,-0.08 -0.06,-0.12 -0.19,-0.25 -0.4,-0.49 -0.64,-0.7 -0.16,-0.25 -0.33,-0.5 -0.5,-0.75 0.57,-0.79 1.5,-2.52 2.56,-2.28 0.3,0.06 0.64,-0.28 0.44,-0.58 -0.21,-0.3 -0.37,-0.3 -0.69,-0.38 -0.1,-0.01 -0.19,-0.05 -0.28,-0.11 -0.08,-0.05 -0.15,-0.13 -0.19,-0.22 0,0 0,-0.01 0,-0.02 0.22,-1.29 0.44,-2.61 1.07,-3.75 1.03,-1.25 2.2,-2.39 3.36,-3.51 0.05,-0.05 0.09,-0.1 0.11,-0.17 0.02,-0.06 0.02,-0.13 0,-0.19 2.4,-1.52 4,-3.98 6,-5.97 0.03,-0.02 0.06,-0.05 0.08,-0.08l0.03 -0.03c0.03,-0.03 0.05,-0.06 0.07,-0.1 0.86,-1.13 1.86,-2.14 2.97,-3 0.35,0.72 0.95,1.28 1.69,1.57 0.05,0.02 0.11,0.03 0.16,0.02 0.02,0.04 0.05,0.08 0.08,0.12 0.08,0.09 0.17,0.19 0.25,0.28 0.51,0.79 1.18,1.45 1.88,2.09 0.06,0.06 0.13,0.1 0.21,0.11 0.08,0.01 0.16,-0.01 0.23,-0.05 0.16,0.23 0.32,0.46 0.48,0.69 -0.07,0.26 0.2,0.52 0.48,0.48l0.04 0c0.05,0.04 0.1,0.06 0.15,0.07 0.06,0.01 0.12,0 0.17,-0.02 0.12,-0.04 0.23,-0.11 0.33,-0.2 0.09,-0.09 0.17,-0.2 0.22,-0.32 0.03,-0.04 0.06,-0.09 0.09,-0.14 0.05,-0.07 0.07,-0.16 0.06,-0.24 -0.01,-0.09 -0.05,-0.17 -0.11,-0.23zm-20.6 11.1c-0.02,0.07 -0.03,0.15 -0.05,0.22 -0.01,-0.01 -0.01,-0.01 -0.02,-0.02l-0.05 -0.03c-0.02,-0.01 -0.04,-0.01 -0.06,-0.02 0.08,-0.03 0.14,-0.08 0.18,-0.15zm-0.07 2.36l0.08 -0.17c0.02,0.03 0.04,0.06 0.06,0.08 -0.05,0.03 -0.1,0.06 -0.14,0.09z"/>
    <path class="fil1" d="M13.72 30.67c-0.62,-0.49 -1.61,-1.45 -1.31,-2.34 0.15,-0.47 -0.59,-0.68 -0.74,-0.21 -0.4,1.19 0.66,2.41 1.51,3.09 0.38,0.32 0.93,-0.23 0.54,-0.54z"/>
    <path class="fil1" d="M7.69 31.45l-0.99 -1.22c-0.01,-0.02 -0.03,-0.04 -0.05,-0.06 0.02,-0.09 0,-0.19 -0.05,-0.27 -0.06,-0.08 -0.13,-0.14 -0.22,-0.16 -0.1,-0.03 -0.2,-0.01 -0.29,0.04 -0.09,0.05 -0.16,0.13 -0.18,0.23 -0.04,0.2 -0.08,0.4 -0.12,0.6 -0.02,0.06 -0.01,0.13 0,0.19 0.02,0.07 0.05,0.13 0.09,0.18 -0.11,0.44 -0.33,0.85 -0.65,1.17 -0.26,0.27 0,0.78 0.37,0.66 0.65,-0.22 1.29,-0.46 1.92,-0.71 0.06,-0.02 0.12,-0.06 0.16,-0.1 0.05,-0.05 0.08,-0.11 0.1,-0.18 0.02,-0.06 0.02,-0.13 0,-0.2 -0.02,-0.06 -0.05,-0.12 -0.09,-0.17z"/>
    <path class="fil2 str0" d="M4.91 32.7c-0.03,0.14 -0.06,0.28 -0.09,0.43 0.85,-2.87 1.55,-5.78 2.1,-8.71 1.77,-1.26 2.92,-3.13 4.46,-4.66 0.4,-0.4 0.83,-0.78 1.23,-1.18 0.26,-0.26 0.5,-0.53 0.74,-0.8 0.31,-0.33 0.25,-0.35 -0.09,-0.69 -0.55,-0.56 -1.12,-1.11 -1.72,-1.62"/>
    <path class="fil2 str0" d="M4.79 33.22l-0.06 -0.22c2.01,-0.41 4,-0.94 5.95,-1.6 0.81,-0.28 1.65,-0.59 2.52,-0.57 1.1,-0.67 1.87,-1.77 2.68,-2.78 1.22,-1.52 2.59,-2.91 4.09,-4.14 -0.01,0.17 0.05,0.32 0.17,0.44 0.6,0.67 1.41,1.14 1.92,1.87 -0.31,0.53 -0.26,1.11 -0.14,1.72 0.14,0.59 0.35,1.16 0.63,1.7 0.17,0.4 0.38,0.78 0.64,1.13 0.31,0.37 0.68,0.7 1.09,0.95 1.42,0.94 3.23,1.51 4.79,0.87 -0.99,-1.36 -2.01,-2.75 -3.38,-3.71l1.01 -2.56 2.39 -0.71c0.07,-0.03 0.15,-0.04 0.23,-0.02 0.08,0.01 0.15,0.06 0.2,0.12 1.2,1.01 2.31,2.14 3.31,3.37 0.15,-1.61 -0.04,-3.39 -0.82,-4.79 -0.78,-1.4 -2.17,-2.5 -3.74,-2.69 -0.6,-0.06 -1.19,-0.05 -1.78,0.05 -0.09,0.02 -0.18,0.01 -0.27,-0.02 -0.06,-0.03 -0.12,-0.07 -0.17,-0.13l-1.8 -1.83c2.73,-2.75 5.34,-5.49 7.97,-8.34 0.27,-0.29 0.55,-0.6 0.66,-0.98 0.05,-0.23 0.06,-0.46 0.03,-0.69 -0.04,-0.23 -0.12,-0.45 -0.24,-0.64 -0.24,-0.39 -0.53,-0.75 -0.87,-1.06l-1.17 -1.2 -2.05 -2.09c-0.23,-0.24 -0.47,-0.48 -0.79,-0.56 -0.4,-0.1 -0.82,0.1 -1.18,0.32 -0.96,0.57 -1.82,1.31 -2.54,2.17 -0.34,0.4 -0.65,0.82 -1,1.21 -0.36,0.38 -0.79,0.75 -1.19,1.12 -1.05,0.98 -2.03,2.03 -2.95,3.15 -0.33,0.39 -0.8,1.35 -1.35,0.94 -0.54,-0.41 -0.94,-1.1 -1.45,-1.56 -0.1,-0.08 -0.18,-0.18 -0.23,-0.3 -0.02,-0.09 -0.03,-0.18 -0.02,-0.27 0.07,-1.29 -0.04,-2.62 -0.55,-3.8 -0.52,-1.18 -1.48,-2.2 -2.69,-2.58 -0.63,-0.2 -1.3,-0.21 -1.96,-0.23 -0.63,-0.01 -1.29,-0.02 -1.85,0.26 0.86,1.17 1.84,2.23 2.94,3.16 0.07,0.04 0.12,0.11 0.16,0.18 0.01,0.07 0,0.15 -0.03,0.21l-0.67 2.75c-0.9,0.2 -1.77,0.49 -2.61,0.87 -1.1,-1.23 -2.28,-2.38 -3.52,-3.46 -0.42,1.44 -0.25,3 0.46,4.32 0.36,0.64 0.84,1.2 1.42,1.65 0.57,0.44 1.23,0.77 1.93,0.95 0.92,0.24 1.88,0.24 2.79,0.47l0.06 0.01"/>
    <path class="fil2 str1" d="M11.42 15.45c1.07,-0.22 2.03,-0.79 2.73,-1.63 0.7,-0.83 1.22,-1.81 1.5,-2.87l-0.24 0.3"/>
    <path class="fil2 str1" d="M22.25 26.13c0.16,-1.1 0.82,-2.07 1.65,-2.79 0.82,-0.73 1.81,-1.23 2.78,-1.73l-0.1 0.08"/>
    <polyline class="fil2 str1" points="19.9,23.88 24.27,19.42 24.03,19.57 "/>
    <path class="fil2 str1" d="M13.26 17.77c1.5,-1.45 2.93,-2.96 4.31,-4.53"/>
    <path class="fil2 str1" d="M21.91 9.14c2.08,2.02 4.08,4.13 5.98,6.32l-0.34 -0.35"/>
    <path class="fil2 str1" d="M23.38 7.37c1.95,2.17 3.99,4.25 6.12,6.23"/>
    <path class="fil2 str2" d="M5.99 30.05c0.2,-0.14 0.42,-0.23 0.65,-0.26 0,0.21 0.01,0.42 0.02,0.63 0,0.04 0.01,0.08 0.04,0.12 0.1,0.13 0.33,-0.07 0.48,0.02 0.18,0.1 0.01,0.47 0.19,0.56 0.07,0.04 0.14,0.01 0.21,0.02 0.19,0.02 0.29,0.24 0.29,0.43 -0.02,0.19 -0.02,0.38 0,0.57"/>
    <path class="fil2 str2" d="M7.08 24.6l1.07 0.28c0.1,0.01 0.2,0.06 0.27,0.13 0.07,0.08 0.1,0.19 0.11,0.3l0.14 0.95c0.34,0 0.77,0.06 0.86,0.4 0.03,0.09 0.02,0.18 0.05,0.27 0.04,0.09 0.1,0.15 0.18,0.19 0.08,0.04 0.17,0.04 0.26,0.01 0.05,0.34 0.36,0.6 0.68,0.7 0.34,0.08 0.69,0.1 1.03,0.05 -0.14,0.38 -0.27,0.75 -0.4,1.13 0.79,0.12 0.91,1.44 1.69,1.6 -0.05,-0.02 -0.11,-0.02 -0.16,-0.01 -0.05,0.02 -0.1,0.04 -0.14,0.08"/>
    <path class="fil2 str2" d="M23.86 11.46c-1.78,1.45 -3.1,3.4 -4.7,5.05 -1.03,1.07 -2.17,2.01 -3.23,3.05 -1.18,1.18 -2.25,2.5 -3.39,3.72 -1.1,1.19 -2.27,2.3 -3.45,3.41l0.26 -0.01"/>
    <path class="fil2 str2" d="M11.68 27.99c4.11,-4.47 8.28,-8.88 12.5,-13.23 0.48,-0.51 0.98,-0.99 1.52,-1.44l-0.26 0.08"/>
    <path class="fil2 str2" d="M28.26 8.98c-0.41,-0.29 -0.86,-0.51 -1.33,-0.65 0.26,-0.29 0.57,-0.51 0.92,-0.67 0.35,-0.15 0.72,-0.23 1.1,-0.24"/>
    <path class="fil2 str2" d="M30.05 8.82c0.05,0.49 0.01,0.98 -0.11,1.46 -0.04,0.18 -0.17,0.41 -0.35,0.37"/>
    <path class="fil2 str2" d="M28.63 10.19c-0.09,-0.07 -0.19,-0.12 -0.3,-0.15 -0.11,-0.03 -0.22,-0.03 -0.33,-0.01 -0.12,0.02 -0.22,0.06 -0.31,0.13 -0.1,0.06 -0.17,0.15 -0.23,0.25"/>
    <path class="fil2 str2" d="M27.11 6.34c-0.06,-0.16 -0.08,-0.35 -0.03,-0.52 0.05,-0.17 0.15,-0.33 0.29,-0.44 0.16,0.16 0.27,0.36 0.34,0.58"/>
    <path class="fil2 str2" d="M25.79 7.34c-0.22,-0.29 -0.55,-0.47 -0.91,-0.52 -0.02,0.05 -0.04,0.11 -0.03,0.16 0,0.06 0.01,0.12 0.05,0.17"/>
    <path class="fil2 str2" d="M31.15 9.28c0.15,0.02 0.29,0.09 0.39,0.2 0.1,0.11 0.16,0.25 0.17,0.41 0.01,0.15 -0.04,0.3 -0.13,0.42 -0.08,0.12 -0.21,0.21 -0.36,0.24"/>
    <path class="fil2 str2" d="M29.32 11.83c0,0.19 0.06,0.38 0.16,0.55 0.05,0.08 0.13,0.14 0.23,0.16 0.09,0.02 0.19,0 0.27,-0.06"/>
    <path class="fil2 str3" d="M20.24 16.25c0.44,0.18 0.93,0.23 1.41,0.13"/>
    <path class="fil2 str3" d="M21.13 15.71c-0.05,0.5 -0.1,1.01 -0.15,1.51"/>
    <path class="fil2 str3" d="M21.92 14.9c0.4,0.09 0.82,0.04 1.19,-0.14 0.08,-0.04 0.17,-0.13 0.13,-0.21"/>
    <path class="fil2 str3" d="M22.55 13.96c-0.03,0.58 -0.03,1.16 0,1.75"/>
    <polyline class="fil2 str3" points="14.95,17.84 15.18,17.22 15.12,17.36 "/>
    <path class="fil2 str3" d="M16.34 20.84c0.18,0.12 0.39,0.2 0.6,0.22"/>
    <line class="fil2 str3" x1="14.77" y1="27.03" x2="14.89" y2= "27.45" />
    <line class="fil2 str3" x1="9.31" y1="29.73" x2="8.85" y2= "30.15" />
    <path class="fil2 str3" d="M6.49 29.9c0.01,-0.07 0.04,-0.14 0.08,-0.2 0.04,-0.07 0.09,-0.12 0.15,-0.16"/>
    <path class="fil2 str3" d="M27.39 24.17c0.16,-0.06 0.3,-0.16 0.41,-0.3l-0.29 0.06"/>
    <path class="fil2 str3" d="M25.09 24.4c0.08,-0.1 0.11,-0.23 0.1,-0.35"/>
    <line class="fil2 str3" x1="24.16" y1="27.39" x2="23.85" y2= "28.1" />
    <line class="fil2 str3" x1="11.66" y1="12.11" x2="11.89" y2= "11.93" />
   </g>
  </g>
 </g>
</svg>
