<?xml version="1.0" encoding="UTF-8"?>
<!DOCTYPE svg PUBLIC "-//W3C//DTD SVG 1.1//EN" "http://www.w3.org/Graphics/SVG/1.1/DTD/svg11.dtd">
<!-- Creator: CorelDRAW 2020 (64-Bit) -->
<svg xmlns="http://www.w3.org/2000/svg" xml:space="preserve" width="150px" height="150px" version="1.1" style="shape-rendering:geometricPrecision; text-rendering:geometricPrecision; image-rendering:optimizeQuality; fill-rule:evenodd; clip-rule:evenodd"
viewBox="0 0 24.3 24.3"
 xmlns:xlink="http://www.w3.org/1999/xlink"
 xmlns:xodm="http://www.corel.com/coreldraw/odm/2003">
 <defs>
  <style type="text/css">
   <![CDATA[
    .str0 {stroke:#231F20;stroke-width:0.71;stroke-linejoin:bevel;stroke-miterlimit:22.9256}
    .str1 {stroke:#231F20;stroke-width:0.28;stroke-linejoin:bevel;stroke-miterlimit:22.9256}
    .fil0 {fill:none}
    .fil2 {fill:none;fill-rule:nonzero}
    .fil1 {fill:#FFC328;fill-rule:nonzero}
   ]]>
  </style>
 </defs>
 <g id="Слой_x0020_1">
  <metadata id="CorelCorpID_0Corel-Layer"/>
  <g id="_2695779540704">
   <rect class="fil0" width="24.3" height="24.3"/>
   <g>
    <path class="fil1" d="M3.21 5.58c-0.56,2.38 -1.14,4.76 -1.94,7.06 -0.07,0.18 0.07,0.38 0.21,0.43 0.53,0.2 1.05,0.42 1.58,0.65 0.36,0.16 0.52,-0.52 0.16,-0.68 -0.42,-0.19 -0.84,-0.36 -1.26,-0.52 0.74,-2.2 1.3,-4.48 1.84,-6.75 0.1,-0.44 -0.48,-0.63 -0.59,-0.19z"/>
    <path class="fil1" d="M8.71 15.47c-0.04,-0.08 -0.1,-0.14 -0.18,-0.16 -0.08,-0.02 -0.16,-0.01 -0.23,0.03 -0.21,0.13 -0.4,0.31 -0.55,0.53l-0.01 0.01c-0.03,-0.01 -0.06,-0.02 -0.1,-0.02 -0.03,0 -0.06,0.01 -0.1,0.02 -0.03,0.02 -0.05,0.04 -0.08,0.07 -0.02,0.02 -0.04,0.06 -0.05,0.09 -0.19,0.5 -0.35,1 -0.49,1.51 -0.02,0.05 -0.04,0.11 -0.04,0.17 0,0.01 0,0.02 -0.01,0.03 -0.02,0.06 -0.02,0.12 0,0.18 0.01,0.06 0.04,0.12 0.08,0.16 0.1,0.35 0.3,0.65 0.57,0.83 0.34,0.23 0.65,-0.38 0.31,-0.61 -0.08,-0.05 -0.16,-0.13 -0.21,-0.22 -0.06,-0.09 -0.1,-0.19 -0.12,-0.3 0.11,-0.45 0.25,-0.89 0.41,-1.32 0.05,0.01 0.1,0.01 0.15,-0.01 0.04,-0.02 0.09,-0.05 0.12,-0.09 0.11,-0.18 0.26,-0.32 0.43,-0.42 0.07,-0.05 0.11,-0.13 0.13,-0.22 0.02,-0.08 0.01,-0.18 -0.03,-0.26z"/>
    <path class="fil1" d="M10.09 18.98c-0.25,-0.25 -0.45,-0.56 -0.59,-0.92 -0.04,-0.08 -0.11,-0.13 -0.19,-0.16 -0.08,-0.02 -0.16,-0.01 -0.23,0.04 -0.07,0.05 -0.12,0.12 -0.14,0.21 -0.02,0.09 -0.01,0.19 0.03,0.27 0.17,0.41 0.4,0.77 0.7,1.05 0.05,0.07 0.13,0.11 0.21,0.11 0.08,0 0.16,-0.04 0.21,-0.11 0.06,-0.06 0.09,-0.15 0.09,-0.24 0,-0.09 -0.03,-0.18 -0.09,-0.25z"/>
    <path class="fil1" d="M11.62 19.23l-0.65 -0.32c-0.08,-0.02 -0.16,-0.01 -0.23,0.03 -0.07,0.05 -0.13,0.13 -0.15,0.22 -0.02,0.09 -0.01,0.18 0.04,0.27 0.04,0.08 0.1,0.14 0.18,0.16l0.65 0.32c0.08,0.02 0.16,0.01 0.23,-0.04 0.07,-0.04 0.12,-0.12 0.15,-0.21 0.02,-0.09 0,-0.19 -0.04,-0.27 -0.04,-0.08 -0.1,-0.14 -0.18,-0.16z"/>
    <path class="fil1" d="M18.06 14.13l-0.02 -0.02c-0.01,0 -0.02,0 -0.03,-0.01 -0.05,-0.14 -0.14,-0.46 -0.16,-0.51 -0.12,-0.27 -0.26,-0.53 -0.4,-0.77 -0.26,-0.43 -0.55,-0.84 -0.86,-1.21 -0.77,-0.92 -1.68,-1.66 -2.57,-2.4 -0.19,-0.16 -0.37,0 -0.42,0.2 -0.19,-0.02 -0.38,0 -0.56,0.04 -0.36,0.11 -0.74,0.15 -1.12,0.1 -0.04,-0.03 -0.08,-0.05 -0.12,-0.06 -0.05,-0.01 -0.1,-0.01 -0.14,0 -0.06,-0.02 -0.12,-0.04 -0.18,-0.06 -0.33,-0.14 -0.49,0.4 -0.25,0.62 -0.48,0.79 -1.13,1.58 -2.04,1.28 -0.37,-0.12 -0.53,0.56 -0.16,0.68 1.26,0.43 2.15,-0.66 2.81,-1.75 0.43,0.05 0.86,0.02 1.27,-0.1 0.94,-0.23 1.55,0.61 2.06,1.4 0.03,0.04 0.07,0.08 0.11,0.1 0.05,0.03 0.1,0.04 0.14,0.05 0.05,0 0.1,-0.01 0.15,-0.03 0.04,-0.02 0.08,-0.06 0.11,-0.1 0.24,0.25 0.47,0.5 0.68,0.78 0.34,0.42 0.63,0.89 0.88,1.39 0.14,0.3 0.21,0.87 0.51,1.03 0.13,0.07 0.34,0.06 0.41,-0.13l0.02 -0.04c0.05,-0.16 0.05,-0.4 -0.12,-0.48z"/>
    <path class="fil1" d="M12.98 6.19c-0.29,0.08 -0.57,0.21 -0.83,0.39 -0.02,-0.03 -0.06,-0.07 -0.09,-0.09 -0.04,-0.02 -0.08,-0.03 -0.12,-0.03 -0.04,-0.01 -0.08,0 -0.12,0.02 -0.04,0.01 -0.08,0.04 -0.11,0.07l-0.03 0.04c0.04,-0.23 -0.11,-0.51 -0.37,-0.42l-2.66 0.99c-0.42,0.15 -0.89,0.4 -1.34,0.43 -0.49,0.03 -0.95,-0.27 -1.38,-0.54 -0.02,-0.01 -0.04,-0.02 -0.06,-0.03 0.01,-0.02 0.02,-0.05 0.04,-0.08 0.17,-0.4 -0.35,-0.76 -0.53,-0.35 -0.46,1.03 -0.71,2.16 -0.99,3.27 -0.29,1.16 -0.59,2.31 -0.88,3.47 -0.03,0.03 -0.05,0.07 -0.06,0.11 -0.02,0.04 -0.02,0.08 -0.02,0.13l0 0.12c0,0.08 0.03,0.16 0.08,0.23 0.04,0.06 0.11,0.1 0.18,0.11 0.07,0.01 0.15,-0.01 0.21,-0.05 0.06,-0.05 0.1,-0.12 0.12,-0.2l0 -0.01c0.67,0.42 1.57,0.52 2.03,1.23 -0.02,0.03 -0.03,0.06 -0.04,0.1 -0.12,0.6 -0.27,1.19 -0.45,1.78 -0.13,0.42 0.46,0.61 0.59,0.19 0.17,-0.59 0.32,-1.18 0.44,-1.78 0.01,-0.04 0.01,-0.09 0,-0.13 0.05,-0.05 0.08,-0.12 0.09,-0.19 0.01,-0.08 -0.01,-0.15 -0.05,-0.22 -0.56,-1.04 -1.62,-1.06 -2.44,-1.67 0.24,-0.93 0.47,-1.85 0.71,-2.77 0.22,-0.89 0.42,-1.79 0.71,-2.65 0.87,0.55 1.57,0.76 2.52,0.43 1.08,-0.39 2.15,-0.8 3.22,-1.2 -0.25,0.21 -0.52,0.37 -0.82,0.49 -0.33,0.12 -0.67,0.18 -0.94,0.45 -0.23,0.22 -0.34,0.52 -0.47,0.82 -0.24,0.57 -0.48,1.13 -0.73,1.7 -0.17,0.4 0.35,0.76 0.53,0.35l0.62 -1.45c0.23,-0.54 0.38,-0.92 0.9,-1.11 0.52,-0.18 1,-0.46 1.43,-0.85 0.05,0.06 0.11,0.09 0.18,0.1 0.06,0.01 0.13,0 0.19,-0.05 0.26,-0.23 0.57,-0.4 0.89,-0.48 0.39,-0.09 0.23,-0.77 -0.15,-0.67z"/>
    <path class="fil1" d="M21.37 12.26c-0.84,-1.73 -1.33,-3.66 -1.41,-5.64 -0.02,-0.45 -0.14,-0.84 0.25,-1.11 0.2,-0.14 0.51,-0.18 0.73,-0.25 0.38,-0.1 0.22,-0.78 -0.16,-0.68 -0.44,0.12 -1.18,0.26 -1.4,0.8 -0.11,0.29 -0.06,0.68 -0.04,0.99 -0.05,0 -0.09,0.01 -0.14,0.03 -0.04,0.03 -0.08,0.06 -0.11,0.1 -0.03,0.04 -0.05,0.09 -0.06,0.15 -0.02,0.05 -0.02,0.11 -0.01,0.16 0.1,0.64 0.18,1.3 0.29,1.95 -0.25,0.28 -0.53,0.56 -0.77,0.86 -0.2,0.28 -0.16,0.79 0.22,0.79 0.05,0 0.09,-0.01 0.13,-0.03 0.04,-0.02 0.07,-0.05 0.1,-0.09 0.03,-0.04 0.05,-0.08 0.06,-0.13 0.01,-0.05 0.01,-0.1 0,-0.15 0.08,-0.1 0.23,-0.23 0.29,-0.3l0.14 -0.16c0.04,0.12 0.07,0.25 0.11,0.37 0.29,0.89 0.42,1.77 0.8,2.63 0.02,0.04 0.05,0.09 0.09,0.12 0.04,0.03 0.08,0.05 0.13,0.05 0.04,0.01 0.09,0 0.13,-0.01 0.04,-0.02 0.08,-0.05 0.11,-0.09 0.2,0.38 0.71,0.03 0.52,-0.36z"/>
    <path class="fil1" d="M14.19 18.44c-0.08,-0.23 -0.15,-0.46 -0.21,-0.69 -0.02,-0.04 -0.03,-0.07 -0.05,-0.11l0.03 -0.02c0.35,-0.21 0.04,-0.82 -0.3,-0.61 -0.18,0.11 -0.35,0.22 -0.52,0.34 -0.06,-0.02 -0.13,-0.02 -0.19,0.01 -0.07,0.03 -0.12,0.08 -0.14,0.15l-0.09 0.2c-0.14,0.29 0.14,0.68 0.41,0.48 0.09,-0.07 0.18,-0.14 0.28,-0.2 0.07,0.27 0.16,0.54 0.26,0.8 0.04,0.08 0.11,0.14 0.18,0.16 0.08,0.03 0.16,0.02 0.23,-0.03 0.07,-0.05 0.12,-0.13 0.14,-0.22 0.02,-0.09 0.01,-0.18 -0.03,-0.26z"/>
    <path class="fil1" d="M15.69 17.28l-0.22 -0.26c0.06,-0.05 0.1,-0.12 0.11,-0.21 0.01,-0.08 0,-0.16 -0.03,-0.24 -0.05,-0.08 -0.11,-0.13 -0.19,-0.16 -0.08,-0.02 -0.16,-0.01 -0.23,0.04l-0.36 0.28c-0.07,0.05 -0.12,0.13 -0.14,0.22 -0.02,0.09 -0.01,0.18 0.03,0.26 0.03,0.06 0.08,0.11 0.13,0.14 0.05,0.03 0.11,0.04 0.17,0.04 0.02,0.04 0.04,0.08 0.07,0.12l0.23 0.27c0.03,0.03 0.06,0.06 0.1,0.07 0.04,0.02 0.08,0.03 0.12,0.03 0.04,0 0.08,-0.01 0.11,-0.03 0.04,-0.01 0.07,-0.04 0.1,-0.07 0.03,-0.04 0.05,-0.07 0.07,-0.12 0.01,-0.04 0.02,-0.09 0.02,-0.13 0,-0.05 -0.01,-0.09 -0.02,-0.14 -0.02,-0.04 -0.04,-0.08 -0.07,-0.11l0 0z"/>
    <path class="fil1" d="M17.18 15c-0.06,-0.06 -0.14,-0.1 -0.22,-0.1 -0.08,0 -0.15,0.04 -0.21,0.1 -0.07,0.09 -0.13,0.18 -0.21,0.25 -0.03,0.04 -0.06,0.07 -0.09,0.11l-0.06 0.05c-0.05,0.02 -0.09,0.06 -0.12,0.11 -0.04,0.05 -0.06,0.11 -0.06,0.17 -0.01,0.04 -0.01,0.08 0,0.12 0,0.04 0.02,0.08 0.04,0.11 0,0.02 0.01,0.03 0.02,0.04 0.01,0.01 0.02,0.02 0.03,0.03 0.05,0.2 0.07,0.42 0.04,0.62 -0.02,0.09 -0.01,0.19 0.03,0.27 0.04,0.08 0.1,0.14 0.18,0.17 0.08,0.02 0.16,0.01 0.23,-0.04 0.07,-0.04 0.12,-0.12 0.14,-0.21 0.06,-0.32 0.05,-0.65 -0.03,-0.97 0.1,-0.1 0.2,-0.21 0.29,-0.33 0.05,-0.07 0.08,-0.16 0.08,-0.25 0,-0.09 -0.03,-0.18 -0.08,-0.25z"/>
    <path class="fil1" d="M10.02 16.41c-0.07,-0.05 -0.16,-0.06 -0.23,-0.04 -0.08,0.03 -0.15,0.09 -0.19,0.17l-0.23 0.59c-0.04,0.08 -0.05,0.18 -0.03,0.27 0.02,0.09 0.07,0.16 0.14,0.21 0.07,0.05 0.15,0.06 0.23,0.04 0.07,-0.03 0.14,-0.08 0.18,-0.16 0.08,-0.2 0.16,-0.4 0.24,-0.6 0.03,-0.08 0.04,-0.17 0.02,-0.26 -0.02,-0.09 -0.07,-0.17 -0.13,-0.22z"/>
    <path class="fil2 str0" d="M11.99 19.39c-0.09,0.15 -0.22,0.27 -0.37,0.35 -0.14,0.08 -0.31,0.11 -0.47,0.09 -0.16,-0.02 -0.31,-0.09 -0.44,-0.2 -0.13,-0.11 -0.24,-0.25 -0.31,-0.43 -0.15,0.11 -0.32,0.18 -0.49,0.19 -0.18,0.02 -0.36,-0.02 -0.52,-0.1 -0.16,-0.08 -0.3,-0.21 -0.41,-0.37 -0.11,-0.16 -0.19,-0.35 -0.22,-0.55 -0.16,0.17 -0.36,0.29 -0.57,0.33 -0.21,0.04 -0.43,0.01 -0.63,-0.09 -0.2,-0.11 -0.36,-0.28 -0.48,-0.49 -0.11,-0.22 -0.17,-0.46 -0.16,-0.72 -0.24,0.13 -0.5,0.21 -0.76,0.24 -0.13,0.01 -0.26,-0.02 -0.38,-0.08 -0.12,-0.07 -0.22,-0.17 -0.3,-0.29 -0.12,-0.23 -0.1,-0.52 -0.07,-0.79 0.06,-0.53 0.24,-1.13 0.67,-1.32 -0.27,-0.46 -0.73,-0.7 -1.19,-0.84 -0.47,-0.14 -0.94,-0.26 -1.35,-0.54 -0.03,-0.03 -0.06,-0.05 -0.1,-0.06 -0.04,-0.01 -0.08,-0.02 -0.12,-0.01 -0.06,0.02 -0.1,0.1 -0.15,0.16 -0.12,0.13 -0.32,0.08 -0.47,0.01 -0.55,-0.23 -1.07,-0.55 -1.54,-0.96 -0.09,-0.06 -0.16,-0.16 -0.19,-0.28 0,-0.1 0.02,-0.2 0.07,-0.28 0.74,-1.73 1.32,-3.54 1.73,-5.41 0.13,-0.59 0.27,-1.22 0.67,-1.6 0.72,0.36 1.47,0.62 2.21,0.99 0.18,0.09 0.39,0.24 0.36,0.46 -0.01,0.09 -0.06,0.18 -0.02,0.26 0.02,0.03 0.05,0.06 0.08,0.07 0.37,0.26 0.79,0.4 1.23,0.43 0.38,-0.02 0.76,-0.11 1.12,-0.27 0.47,-0.2 0.93,-0.43 1.37,-0.7 0.4,-0.24 0.79,-0.5 1.23,-0.58 0.43,-0.09 0.94,0.07 1.16,0.51 0.22,-0.24 0.56,-0.28 0.85,-0.2 0.29,0.09 0.58,0.21 0.85,0.37 0.87,0.4 1.85,0.44 2.79,0.28 0.93,-0.17 1.83,-0.51 2.72,-0.86 -0.09,-0.24 -0.22,-0.5 -0.32,-0.75 -0.01,-0.02 -0.02,-0.04 -0.02,-0.06 0,-0.03 0,-0.05 0.01,-0.08 0.02,-0.03 0.05,-0.06 0.08,-0.07 0.6,-0.3 1.21,-0.53 1.84,-0.69 0.1,-0.04 0.21,-0.04 0.31,0.01 0.04,0.04 0.08,0.1 0.11,0.16 0.03,0.06 0.05,0.13 0.05,0.2 0.23,1.29 0.25,2.67 0.76,3.85 0.21,0.49 0.5,0.93 0.71,1.41 0.29,0.67 0.43,1.42 0.4,2.16 -0.62,0.53 -1.36,0.83 -2.12,0.87l-0.25 -0.49c-0.29,0.05 -0.63,0.06 -0.92,0.12 -0.15,0.01 -0.3,0.05 -0.44,0.13 -0.14,0.08 -0.26,0.19 -0.36,0.33l-1.22 1.32c0.06,0.32 0.07,0.65 0.02,0.98 -0.02,0.19 -0.1,0.38 -0.21,0.53 -0.21,0.25 -0.55,0.25 -0.85,0.24 -0.01,0.22 -0.07,0.44 -0.17,0.64 -0.1,0.19 -0.23,0.36 -0.4,0.48 -0.16,0.13 -0.34,0.21 -0.53,0.24 -0.2,0.02 -0.39,0 -0.58,-0.07 0.01,0.4 -0.26,0.75 -0.58,0.89 -0.32,0.15 -0.68,0.13 -1.02,0.08 -0.05,0.2 -0.13,0.38 -0.24,0.54 -0.11,0.15 -0.25,0.28 -0.41,0.36 -0.17,0.08 -0.35,0.12 -0.53,0.11 -0.18,-0.01 -0.36,-0.07 -0.52,-0.16z"/>
    <path class="fil2 str1" d="M5.69 6.73c-0.8,2.36 -1.62,4.7 -2.48,7.03"/>
    <path class="fil2 str1" d="M19.34 6l0.38 1.68c0.11,0.46 0.2,0.93 0.27,1.41 0.05,0.44 0.07,0.89 0.14,1.33 0.13,0.83 0.43,1.61 0.89,2.27"/>
    <path class="fil2 str1" d="M6.11 15.55c0.18,-0.33 0.39,-0.69 0.72,-0.74 0.29,-0.05 0.58,0.18 0.75,0.46 0.11,0.16 0.17,0.36 0.19,0.57 0,0.21 -0.04,0.42 -0.12,0.61 -0.15,0.41 -0.33,0.81 -0.55,1.17l0.05 -0.32"/>
    <path class="fil2 str1" d="M7.84 15.95c0.07,-0.16 0.18,-0.29 0.31,-0.38 0.13,-0.09 0.28,-0.14 0.43,-0.14 0.14,0.01 0.28,0.04 0.41,0.09 0.13,0.04 0.24,0.1 0.34,0.19 0.06,0.07 0.11,0.16 0.15,0.25 0.03,0.09 0.05,0.19 0.04,0.29 0.02,0.47 -0.17,0.91 -0.36,1.33l-0.44 0.96"/>
    <path class="fil2 str1" d="M9.55 16.81c0.05,-0.11 0.12,-0.2 0.21,-0.26 0.09,-0.06 0.19,-0.09 0.29,-0.08 0.21,0.02 0.4,0.11 0.57,0.26 0.16,0.11 0.28,0.27 0.35,0.47 0.04,0.17 0.04,0.35 0,0.53 -0.09,0.52 -0.25,1.03 -0.48,1.5"/>
    <path class="fil2 str1" d="M10.99 17.8c0.17,-0.09 0.35,-0.12 0.54,-0.09 0.09,0.01 0.17,0.05 0.25,0.11 0.08,0.05 0.15,0.13 0.2,0.22 0.09,0.19 0.11,0.42 0.07,0.63 -0.05,0.22 -0.12,0.42 -0.22,0.61 -0.04,0.09 -0.08,0.19 -0.12,0.28"/>
    <path class="fil2 str1" d="M6.89 14.94c-0.03,0.09 -0.07,0.18 -0.1,0.27 -0.11,0.3 -0.19,0.67 -0.04,0.94 0.06,0.09 0.13,0.16 0.22,0.2 0.09,0.04 0.19,0.05 0.28,0.03 0.09,-0.03 0.18,-0.09 0.24,-0.17 0.06,-0.08 0.1,-0.19 0.12,-0.3"/>
    <path class="fil2 str1" d="M8.57 15.59l-0.15 0.33c-0.09,0.18 -0.15,0.37 -0.19,0.58 -0.02,0.1 -0.01,0.21 0.01,0.31 0.03,0.1 0.07,0.19 0.14,0.27 0.2,0.2 0.52,0.12 0.71,-0.08 0.2,-0.2 0.29,-0.51 0.38,-0.79l0 0.1"/>
    <path class="fil2 str1" d="M9.99 16.6c-0.13,0.29 -0.22,0.61 -0.26,0.93 -0.02,0.14 -0.01,0.28 0.04,0.41 0.05,0.08 0.12,0.15 0.2,0.18 0.12,0.04 0.25,0.04 0.36,-0.02 0.12,-0.05 0.21,-0.15 0.27,-0.28 0.09,-0.21 0.07,-0.47 0.16,-0.68 0.02,-0.03 0.04,-0.07 0.07,-0.06 0.03,0.01 0.01,0.08 -0.01,0.06"/>
    <path class="fil2 str1" d="M11.35 17.94c-0.05,0.13 -0.07,0.26 -0.08,0.4 0,0.07 0.01,0.14 0.04,0.2 0.02,0.06 0.06,0.11 0.11,0.15 0.13,0.07 0.28,0.02 0.41,0.09"/>
    <path class="fil2 str1" d="M11.94 6.45c-0.42,0.44 -0.92,0.75 -1.47,0.92 -0.22,0.05 -0.43,0.13 -0.63,0.25 -0.39,0.28 -0.5,0.87 -0.7,1.34 -0.14,0.33 -0.33,0.63 -0.46,0.96 -0.13,0.32 -0.19,0.67 -0.19,1.03 0,0.15 0.03,0.3 0.08,0.44 0.06,0.11 0.14,0.2 0.24,0.26 0.1,0.06 0.2,0.09 0.31,0.09 0.22,-0.01 0.44,-0.08 0.63,-0.21 0.42,-0.25 0.78,-0.61 1.06,-1.05 0.28,-0.44 0.47,-0.95 0.56,-1.49"/>
    <path class="fil2 str1" d="M11.3 9.41l0.19 0.05c0.12,0.04 0.24,0.07 0.36,0.09 0.51,0.07 1.01,-0.08 1.5,-0.23"/>
    <path class="fil2 str1" d="M13.22 9.27c0.66,0.27 1.23,0.79 1.75,1.34 1.18,1.26 2.17,2.73 2.92,4.37"/>
    <path class="fil2 str1" d="M17.06 15.4c-0.2,0.11 -0.38,0.25 -0.54,0.42"/>
    <path class="fil2 str1" d="M15.32 16.9c-0.19,0.11 -0.37,0.24 -0.55,0.39"/>
    <path class="fil2 str1" d="M13.72 17.89c-0.2,0.1 -0.39,0.22 -0.57,0.37"/>
    <path class="fil2 str1" d="M16.75 15.68c0.07,0.11 0.12,0.23 0.14,0.36 0.03,0.14 0.03,0.27 0,0.4"/>
    <line class="fil2 str1" x1="15.1" y1="16.99" x2="15.3" y2= "17.55" />
    <path class="fil2 str1" d="M13.47 18.03c0.01,0.13 0.04,0.26 0.1,0.37 0.06,0.11 0.14,0.21 0.24,0.28"/>
    <path class="fil2 str1" d="M19.68 8.89c-0.33,0.12 -0.65,0.31 -0.92,0.57"/>
    <path class="fil2 str1" d="M19.84 9.67c-0.32,0 -0.62,0.15 -0.85,0.41"/>
    <path class="fil2 str1" d="M16.17 9.66c-0.02,0.8 0.83,1.35 0.84,2.14"/>
    <path class="fil2 str1" d="M2.43 12.09c-0.06,0.13 -0.08,0.28 -0.07,0.42 0,0.07 0.03,0.14 0.08,0.19 0.05,0.05 0.11,0.07 0.17,0.08l0.23 -0.52c0.04,-0.08 0.07,-0.18 0.07,-0.28 0,-0.1 -0.08,-0.2 -0.17,-0.18 -0.03,0.01 -0.05,0.03 -0.07,0.06 -0.03,0.02 -0.04,0.05 -0.06,0.08 -0.1,0.19 -0.16,0.4 -0.2,0.62"/>
    <path class="fil2 str1" d="M6.61 8.91c0.31,-0.16 0.59,-0.37 0.84,-0.63 -0.02,-0.01 -0.04,0 -0.06,0.01 -0.02,0.01 -0.04,0.03 -0.05,0.05"/>
    <path class="fil2 str1" d="M6.13 10.49c0.11,0.03 0.21,0.09 0.29,0.17 0.08,0.08 0.15,0.19 0.18,0.3"/>
    <path class="fil2 str1" d="M5.18 11.73c-0.16,0.18 -0.29,0.4 -0.39,0.63"/>
    <line class="fil2 str1" x1="4.46" y1="13.88" x2="3.96" y2= "14.89" />
    <path class="fil2 str1" d="M6.37 12.96c0.13,0.19 0.26,0.36 0.42,0.52"/>
    <path class="fil2 str1" d="M7.93 12.77c0.14,0.08 0.3,0.13 0.46,0.14"/>
    <line class="fil2 str1" x1="7.8" y1="7.48" x2="7.8" y2= "6.57" />
    <path class="fil2 str1" d="M8.69 11.46c0.19,-0.39 0.39,-0.81 0.42,-1.26 0.01,-0.21 -0.04,-0.48 -0.22,-0.54"/>
    <line class="fil2 str1" x1="11.35" y1="9.33" x2="11.72" y2= "8.97" />
    <line class="fil2 str1" x1="9.48" y1="13.1" x2="10.06" y2= "13.05" />
    <line class="fil2 str1" x1="9.63" y1="14.64" x2="9.56" y2= "15.04" />
    <path class="fil2 str1" d="M11.63 11.97c0.2,-0.2 0.42,-0.36 0.66,-0.46"/>
    <path class="fil2 str1" d="M11.79 14.43c0.17,0.19 0.3,0.41 0.41,0.64"/>
    <path class="fil2 str1" d="M5.04 14.49c-0.06,0.15 -0.09,0.31 -0.08,0.48"/>
    <path class="fil2 str1" d="M14.83 13.86l0.35 -0.23c0.04,-0.02 0.1,0 0.07,0.03"/>
    <path class="fil2 str1" d="M9.79 7.94c0.06,0.14 0.14,0.26 0.23,0.37"/>
    <path class="fil2 str1" d="M10.09 7.74c0.06,0.01 0.11,0.04 0.15,0.08 0.03,0.04 0.06,0.09 0.08,0.16"/>
   </g>
  </g>
 </g>
</svg>
