<?xml version="1.0" encoding="UTF-8"?>
<!DOCTYPE svg PUBLIC "-//W3C//DTD SVG 1.1//EN" "http://www.w3.org/Graphics/SVG/1.1/DTD/svg11.dtd">
<!-- Creator: CorelDRAW 2020 (64-Bit) -->
<svg xmlns="http://www.w3.org/2000/svg" xml:space="preserve" width="150px" height="150px" version="1.1" style="shape-rendering:geometricPrecision; text-rendering:geometricPrecision; image-rendering:optimizeQuality; fill-rule:evenodd; clip-rule:evenodd"
viewBox="0 0 18 18"
 xmlns:xlink="http://www.w3.org/1999/xlink"
 xmlns:xodm="http://www.corel.com/coreldraw/odm/2003">
 <defs>
  <style type="text/css">
   <![CDATA[
    .str0 {stroke:#231F20;stroke-width:0.6;stroke-linejoin:round;stroke-miterlimit:22.9256}
    .str1 {stroke:#231F20;stroke-width:0.24;stroke-linejoin:round;stroke-miterlimit:22.9256}
    .str2 {stroke:#231F20;stroke-width:0.24;stroke-linejoin:bevel;stroke-miterlimit:22.9256}
    .fil0 {fill:none}
    .fil2 {fill:none;fill-rule:nonzero}
    .fil1 {fill:#FFC328;fill-rule:nonzero}
   ]]>
  </style>
 </defs>
 <g id="Слой_x0020_1">
  <metadata id="CorelCorpID_0Corel-Layer"/>
  <g id="_2659393919040">
   <rect class="fil0" width="18" height="18"/>
   <g>
    <path class="fil1" d="M2.36 4.57c-0.25,0.37 -0.42,0.78 -0.49,1.21 -0.03,0.17 0.26,0.33 0.36,0.13 0.18,-0.34 0.32,-0.69 0.41,-1.06l-0.38 -0.05c-0.19,1.51 -0.3,3.03 -0.32,4.55 0,0.23 0.37,0.23 0.39,0l0.1 -1.45 -0.38 0.05c0.2,0.9 0.39,1.81 0.57,2.72l0.35 -0.14c-0.21,-0.36 -0.37,-0.74 -0.49,-1.13 -0.06,-0.19 -0.39,-0.16 -0.38,0.04 0.02,0.36 0.01,0.72 -0.03,1.07l0.39 0 0 -0.84c0,-0.22 -0.39,-0.22 -0.39,0l0 1.13 0.38 -0.04 -0.01 -0.04 -0.1 0.2 -0.09 -0.03 -0.05 -0.17 -0.07 0.08c-0.18,0.1 -0.07,0.39 0.15,0.32 0.15,-0.05 0.31,-0.06 0.47,-0.05 0.16,0.01 0.26,-0.2 0.14,-0.3l-0.09 -0.11 -0.24 0.21c0.08,0.03 0.16,0.06 0.22,0.11 0.11,0.08 0.3,-0.02 0.29,-0.15 -0.02,-0.24 -0.06,-0.48 -0.11,-0.71l-0.36 0.13 0.29 0.42c0.11,0.16 0.34,0.07 0.36,-0.09l0.03 -0.19 -0.38 0.04c0.06,0.22 0.19,0.42 0.38,0.58 0.18,0.16 0.42,0.27 0.67,0.31l0.05 -0.34c-0.62,0.07 -1.25,-0.01 -1.82,-0.24l-0.1 0.33 0.54 -0.05 0.23 -0.03c0.08,0.02 0.11,0 0.12,-0.07l0.3 0.03 -0.65 -0.89c-0.02,-0.03 -0.05,-0.05 -0.08,-0.07 -0.03,-0.01 -0.07,-0.02 -0.11,-0.01 -0.04,0 -0.07,0.01 -0.1,0.04 -0.03,0.02 -0.05,0.05 -0.06,0.08l-0.12 0.42 0.38 0.05 0.05 -0.72c0.01,-0.22 -0.38,-0.22 -0.39,0l-0.05 0.72c-0.01,0.2 0.33,0.24 0.38,0.05l0.12 -0.43 -0.35 0.04 0.64 0.9c0.02,0.02 0.04,0.04 0.06,0.06 0.03,0.01 0.06,0.02 0.08,0.02 0.03,0.01 0.06,0 0.09,0 0.03,-0.01 0.06,-0.03 0.08,-0.05 0.14,-0.13 0.15,-0.34 -0.04,-0.46 -0.28,-0.17 -0.83,-0.01 -1.12,0.02 -0.17,0.01 -0.3,0.24 -0.1,0.32 0.63,0.26 1.33,0.36 2.02,0.29 0.19,-0.02 0.28,-0.3 0.05,-0.34 -0.19,-0.03 -0.36,-0.11 -0.5,-0.22 -0.14,-0.12 -0.24,-0.27 -0.28,-0.43 -0.07,-0.2 -0.36,-0.14 -0.38,0.05l-0.03 0.19 0.36 -0.08 -0.29 -0.42c-0.02,-0.04 -0.06,-0.06 -0.1,-0.08 -0.05,-0.01 -0.1,-0.01 -0.14,0.01 -0.04,0.02 -0.08,0.05 -0.1,0.08 -0.02,0.04 -0.02,0.08 -0.01,0.12 0.04,0.21 0.08,0.42 0.1,0.63l0.3 -0.15c-0.1,-0.07 -0.21,-0.12 -0.32,-0.15 -0.14,-0.05 -0.28,0.09 -0.24,0.21 0.03,0.11 0.09,0.2 0.19,0.27l0.13 -0.3c-0.19,-0.01 -0.38,0.01 -0.56,0.06l0.15 0.32c0.15,-0.08 0.33,-0.24 0.23,-0.41 -0.08,-0.14 -0.29,-0.16 -0.42,-0.07 -0.03,0.02 -0.06,0.05 -0.08,0.08 -0.01,0.04 -0.02,0.08 -0.01,0.11l0.02 0.04c0.06,0.18 0.38,0.16 0.38,-0.05l0 -1.13 -0.39 0 0 0.84c0,0.23 0.37,0.22 0.39,0 0.05,-0.36 0.06,-0.71 0.04,-1.07l-0.39 0.05c0.13,0.42 0.31,0.83 0.53,1.22 0.11,0.18 0.39,0.04 0.36,-0.14 -0.18,-0.91 -0.37,-1.81 -0.57,-2.72 -0.04,-0.2 -0.37,-0.13 -0.38,0.05l-0.1 1.45 0.39 0c0.02,-1.52 0.13,-3.04 0.32,-4.55 0.03,-0.19 -0.33,-0.23 -0.38,-0.04 -0.09,0.33 -0.21,0.66 -0.38,0.98l0.36 0.13c0.06,-0.4 0.22,-0.78 0.45,-1.13 0.13,-0.19 -0.21,-0.36 -0.34,-0.17z"/>
    <path class="fil1" d="M2.26 11.62c0.6,-0.07 1.21,-0.1 1.83,-0.09 0.25,0.01 0.25,-0.34 0,-0.35 -0.62,-0.01 -1.23,0.02 -1.83,0.09 -0.25,0.03 -0.25,0.37 0,0.35z"/>
    <path class="fil1" d="M2.09 12.1c0.08,-0.04 0.16,-0.06 0.25,-0.08 0.04,0 0.08,-0.01 0.12,-0.01l0.05 0c0.04,0.01 0.03,0 -0.02,-0.03l-0.03 -0.09 0 0.03 0.03 -0.09c0.04,-0.03 0.03,-0.03 -0.02,0l-0.09 0.05 -0.18 0.09c-0.22,0.12 -0.02,0.42 0.19,0.31 0.13,-0.07 0.33,-0.14 0.42,-0.25 0.02,-0.03 0.03,-0.05 0.04,-0.08 0,-0.03 0,-0.06 0,-0.09 -0.01,-0.03 -0.03,-0.06 -0.05,-0.09 -0.02,-0.02 -0.04,-0.04 -0.07,-0.06 -0.23,-0.13 -0.61,-0.02 -0.83,0.09 -0.23,0.1 -0.03,0.4 0.19,0.3l0 0z"/>
    <path class="fil1" d="M2.02 12.16c0.25,0 0.25,-0.35 0,-0.35 -0.25,0 -0.25,0.35 0,0.35z"/>
    <path class="fil1" d="M1.9 12.19c-0.01,0.11 0.02,0.22 0.1,0.31 0.07,0.1 0.18,0.16 0.3,0.19 0.33,0.09 0.67,-0.1 0.99,0 0.24,0.07 0.34,-0.26 0.11,-0.33 -0.17,-0.05 -0.35,-0.06 -0.52,-0.03 -0.17,0.02 -0.63,0.14 -0.59,-0.14 0.02,-0.22 -0.37,-0.22 -0.39,0l0 0z"/>
    <path class="fil1" d="M1.99 12.62l-0.02 0.15c-0.01,0.03 -0.01,0.05 0,0.08 0,0.02 0.02,0.05 0.04,0.07 0.01,0.02 0.04,0.04 0.06,0.05 0.03,0.01 0.06,0.02 0.09,0.02 0.65,0.01 1.29,-0.2 1.94,-0.27 0.66,-0.06 1.32,-0.08 1.97,-0.03 0.25,0.01 0.25,-0.34 0,-0.35 -0.66,-0.04 -1.32,-0.03 -1.97,0.04 -0.64,0.07 -1.29,0.27 -1.95,0.26l0.2 0.23 0.02 -0.16c0.03,-0.22 -0.34,-0.31 -0.38,-0.09l0 0z"/>
    <path class="fil1" d="M4.68 13.2c1.07,-0.11 2.15,-0.19 3.22,-0.24 0.25,-0.01 0.25,-0.36 0,-0.34 -1.07,0.05 -2.15,0.12 -3.22,0.23 -0.24,0.02 -0.25,0.37 0,0.35z"/>
    <path class="fil1" d="M6.76 13.58c0.84,-0.12 1.69,-0.16 2.54,-0.12 0.25,0.01 0.25,-0.34 0,-0.35 -0.89,-0.04 -1.77,0.01 -2.64,0.14 -0.25,0.03 -0.14,0.37 0.1,0.33l0 0z"/>
    <path class="fil1" d="M3.59 11.76c1.09,-0.19 2.21,-0.19 3.3,0l0.05 -0.35c-1.18,-0.01 -2.36,-0.01 -3.52,0.17 -0.21,0.04 -0.16,0.36 0.06,0.35 1.8,-0.12 3.62,-0.12 5.43,0l-0.05 -0.35c-1.83,0.33 -3.71,-0.09 -5.54,0.28 -0.21,0.05 -0.17,0.36 0.05,0.34l1.79 -0.11 -0.05 -0.34c-0.76,0.19 -1.55,0.25 -2.32,0.17l0.14 0.3c0.06,-0.08 0.14,-0.14 0.23,-0.17 0.1,-0.04 0.2,-0.05 0.3,-0.04l-0.16 -0.26c-0.19,0.27 -0.45,0.49 -0.76,0.63l0.29 0.15c0.01,-0.21 0.09,-0.41 0.23,-0.58 0.13,-0.17 -0.15,-0.35 -0.3,-0.21 -0.24,0.21 -0.46,0.44 -0.66,0.68l0.34 0.18c0.14,-0.18 0.32,-0.32 0.54,-0.42l-0.29 -0.15c0.01,0.13 -0.01,0.27 -0.08,0.4 -0.06,0.12 -0.16,0.23 -0.29,0.31l0.29 0.2c0.14,-0.41 0.43,-0.77 0.82,-1.01l-0.26 -0.24c-0.17,0.34 -0.39,0.66 -0.66,0.95l0.33 0.07c-0.11,-0.26 -0.2,-0.52 -0.28,-0.79 -0.05,-0.19 -0.38,-0.15 -0.38,0.05l0 1.46 0.39 0 0 -0.67 -0.37 0.08c0.14,0.21 0.28,0.42 0.43,0.62 0.14,0.18 0.48,0.01 0.34,-0.18 -0.15,-0.2 -0.29,-0.4 -0.43,-0.61 -0.02,-0.03 -0.06,-0.06 -0.09,-0.07 -0.04,-0.02 -0.09,-0.02 -0.13,-0.01 -0.04,0.01 -0.07,0.03 -0.1,0.06 -0.03,0.03 -0.04,0.07 -0.04,0.11l0 0.66c0,0.23 0.39,0.23 0.39,0l0 -1.45 -0.38 0.04c0.08,0.27 0.17,0.53 0.28,0.79 0.04,0.12 0.22,0.19 0.32,0.08 0.29,-0.3 0.53,-0.65 0.71,-1.02 0.07,-0.14 -0.08,-0.34 -0.26,-0.23 -0.48,0.29 -0.84,0.71 -1.01,1.21 -0.05,0.14 0.15,0.29 0.29,0.2 0.18,-0.11 0.33,-0.27 0.43,-0.44 0.09,-0.18 0.14,-0.38 0.13,-0.57 -0.01,-0.03 -0.02,-0.06 -0.03,-0.09 -0.02,-0.03 -0.04,-0.05 -0.07,-0.06 -0.03,-0.02 -0.07,-0.03 -0.1,-0.03 -0.03,0 -0.07,0.01 -0.1,0.03 -0.27,0.13 -0.5,0.31 -0.68,0.54 -0.15,0.18 0.19,0.35 0.34,0.18 0.18,-0.22 0.38,-0.42 0.59,-0.61l-0.3 -0.21c-0.18,0.22 -0.28,0.48 -0.29,0.75 -0.01,0.14 0.17,0.21 0.29,0.15 0.38,-0.17 0.69,-0.43 0.9,-0.75 0.02,-0.03 0.03,-0.06 0.03,-0.09 0,-0.03 -0.01,-0.06 -0.03,-0.09 -0.02,-0.02 -0.04,-0.05 -0.07,-0.06 -0.03,-0.02 -0.06,-0.03 -0.1,-0.03 -0.15,-0.01 -0.3,0.01 -0.45,0.06 -0.14,0.05 -0.26,0.14 -0.36,0.25 -0.03,0.02 -0.04,0.05 -0.05,0.09 -0.01,0.03 0,0.06 0.01,0.09 0.02,0.04 0.04,0.06 0.07,0.08 0.03,0.02 0.07,0.03 0.11,0.03 0.81,0.09 1.63,0.03 2.42,-0.18 0.2,-0.05 0.17,-0.35 -0.05,-0.34l-1.79 0.12 0.05 0.34c1.82,-0.38 3.7,0.05 5.53,-0.28 0.23,-0.04 0.16,-0.33 -0.05,-0.34 -1.81,-0.12 -3.62,-0.12 -5.43,0l0.05 0.34c1.13,-0.18 2.28,-0.17 3.42,-0.16 0.21,0 0.27,-0.3 0.05,-0.34 -1.16,-0.2 -2.35,-0.2 -3.51,0 -0.25,0.04 -0.14,0.38 0.1,0.33l0.01 0.01z"/>
    <path class="fil1" d="M3.06 13.22c0.4,-0.11 0.81,-0.16 1.23,-0.15l-0.05 -0.34c-0.52,0.17 -1.06,0.27 -1.62,0.28 -0.25,0.01 -0.25,0.35 0,0.35l1.34 0.02 -0.17 -0.26c-0.28,0.32 -0.73,0.43 -1.15,0.53l0.1 0.33c0.43,-0.13 0.88,-0.2 1.33,-0.2l-0.09 -0.33c-0.39,0.18 -0.82,0.25 -1.24,0.21l0 0.35c0.8,-0.04 1.61,0.01 2.4,0.14 0.34,0.06 0.69,0.12 1.04,0.12 0.39,-0.01 0.76,-0.13 1.15,-0.03 0.24,0.06 0.34,-0.28 0.1,-0.34 -0.34,-0.08 -0.66,-0.03 -1,0 -0.45,0.05 -0.89,-0.04 -1.33,-0.11 -0.78,-0.13 -1.57,-0.17 -2.36,-0.13 -0.05,0 -0.1,0.02 -0.14,0.05 -0.04,0.03 -0.06,0.08 -0.06,0.12 0,0.05 0.02,0.09 0.06,0.13 0.04,0.03 0.09,0.05 0.14,0.05 0.49,0.04 0.99,-0.05 1.43,-0.26 0.18,-0.07 0.09,-0.32 -0.1,-0.32 -0.48,0 -0.97,0.07 -1.43,0.22 -0.23,0.07 -0.14,0.39 0.1,0.33 0.54,-0.13 1.04,-0.28 1.38,-0.69 0.1,-0.11 -0.03,-0.26 -0.16,-0.26l-1.34 -0.02 0 0.35c0.59,-0.01 1.17,-0.11 1.72,-0.3 0.2,-0.07 0.18,-0.34 -0.05,-0.34 -0.45,-0.01 -0.9,0.05 -1.33,0.16 -0.24,0.07 -0.14,0.4 0.1,0.34l0 0z"/>
    <path class="fil1" d="M3.09 12.94l0.01 -0.21 -0.35 -0.14c-0.1,0.4 -0.26,0.8 -0.47,1.17l0.36 0.14c0.04,-0.13 0.09,-0.24 0.15,-0.36l-0.35 -0.13 0.04 0.1 0 0.18c0.04,-0.06 0.45,-0.1 0.54,-0.12l-0.11 -0.34 -0.14 -0.05 -0.31 0.21c0.13,0.13 0.3,0.45 0.53,0.46 0.04,0.01 0.08,0 0.12,-0.01 0.04,-0.01 0.07,-0.03 0.1,-0.06 0.03,-0.03 0.05,-0.06 0.06,-0.09 0.01,-0.04 0.02,-0.07 0.02,-0.11 -0.01,-0.09 -0.06,-0.13 -0.11,-0.21 -0.11,-0.19 -0.1,-0.4 -0.1,-0.61 -0.02,-0.39 0.03,-0.78 0.14,-1.16l-0.37 0 -0.01 0.2 0.24 -0.12 -0.08 -0.05 -0.19 0.22c0.18,-0.02 0.36,0.01 0.53,0.07l0.11 -0.34c-0.1,-0.01 -1.04,-0.13 -0.94,-0.31l-0.35 -0.14 -0.06 0.27 0.38 0c-0.06,-0.16 -0.08,-0.32 -0.07,-0.48l-0.24 0.17c0.11,0.01 0.21,0.04 0.3,0.09 0.22,0.11 0.42,-0.19 0.2,-0.3 -0.12,-0.06 -0.26,-0.11 -0.4,-0.13 -0.03,0 -0.06,0 -0.08,0 -0.03,0.01 -0.06,0.02 -0.08,0.03 -0.03,0.02 -0.04,0.04 -0.06,0.06 -0.01,0.02 -0.02,0.05 -0.02,0.08 -0.02,0.19 0.01,0.38 0.08,0.56 0.05,0.15 0.33,0.18 0.37,0l0.05 -0.26c0.04,-0.18 -0.25,-0.32 -0.35,-0.14 -0.37,0.66 0.69,0.76 1.17,0.83 0.05,0.01 0.1,0.01 0.14,-0.02 0.05,-0.02 0.08,-0.06 0.1,-0.1 0.01,-0.05 0,-0.09 -0.02,-0.13 -0.03,-0.04 -0.07,-0.07 -0.12,-0.09 -0.2,-0.07 -0.42,-0.09 -0.64,-0.07 -0.11,0 -0.23,0.1 -0.19,0.22 0.07,0.16 0.16,0.25 0.36,0.29 0.05,0.02 0.1,0.01 0.14,-0.01 0.05,-0.03 0.08,-0.06 0.1,-0.11 0.03,-0.12 0.03,-0.25 0,-0.38 -0.03,-0.18 -0.32,-0.16 -0.37,0 -0.15,0.47 -0.17,0.95 -0.16,1.43 0.01,0.14 -0.02,0.39 0.09,0.52 0.07,0.09 0.3,0.16 0.25,0 -0.03,-0.1 -0.22,-0.24 -0.29,-0.32 -0.15,-0.17 -0.39,0.04 -0.31,0.21 0.03,0.05 0.06,0.09 0.1,0.13 0.04,0.04 0.09,0.07 0.15,0.09 0.05,0.02 0.11,0.03 0.17,0.03 0.06,0 0.12,-0.01 0.17,-0.04 0.23,-0.07 0.15,-0.38 -0.1,-0.33 -0.25,0.05 -0.62,0.06 -0.77,0.28 -0.02,0.02 -0.03,0.05 -0.03,0.09 0,0.03 0.01,0.06 0.03,0.08 0.2,0.29 0.61,0.1 0.67,-0.18 0.03,-0.18 -0.25,-0.33 -0.36,-0.14 -0.08,0.14 -0.15,0.29 -0.2,0.44 -0.06,0.19 0.26,0.31 0.36,0.13 0.22,-0.39 0.39,-0.82 0.5,-1.25 0.01,-0.04 0.01,-0.09 -0.01,-0.12 -0.02,-0.04 -0.06,-0.07 -0.1,-0.09 -0.05,-0.01 -0.09,-0.02 -0.14,0 -0.04,0.01 -0.08,0.04 -0.1,0.07 -0.07,0.08 -0.11,0.18 -0.11,0.28 0,0.1 0.03,0.2 0.1,0.28 0.13,0.19 0.47,0.02 0.33,-0.17l0 0.01z"/>
    <path class="fil1" d="M4.63 3.96c-0.06,0.09 -0.09,0.18 -0.08,0.28 0,0.1 0.04,0.2 0.1,0.27 0.07,0.08 0.16,0.14 0.27,0.17 0.1,0.03 0.21,0.04 0.32,0.01 0.24,-0.06 0.14,-0.4 -0.1,-0.34 -0.03,0.01 -0.07,0.01 -0.1,0 -0.03,-0.01 -0.05,-0.03 -0.07,-0.05 -0.02,-0.03 -0.03,-0.05 -0.03,-0.08 0,-0.03 0.01,-0.06 0.03,-0.08 0.13,-0.19 -0.21,-0.37 -0.34,-0.18z"/>
    <path class="fil1" d="M5.02 4.3c-0.19,0.05 -0.37,0.17 -0.48,0.32 -0.12,0.15 -0.18,0.33 -0.16,0.52 0.01,0.16 0.26,0.25 0.36,0.09 0.17,-0.28 0.28,-0.57 0.34,-0.87 0.04,-0.22 -0.31,-0.31 -0.38,-0.09 -0.21,0.67 -0.35,1.36 -0.41,2.06 -0.01,0.22 0.38,0.22 0.39,0 0.06,-0.67 0.19,-1.33 0.4,-1.97l-0.38 -0.09c-0.05,0.27 -0.15,0.54 -0.29,0.78l0.36 0.09c-0.02,-0.11 0.01,-0.22 0.08,-0.31 0.06,-0.09 0.16,-0.16 0.28,-0.19 0.23,-0.07 0.13,-0.41 -0.11,-0.34z"/>
    <path class="fil1" d="M4.57 4.18l-0.24 0.89c-0.06,0.22 0.32,0.31 0.38,0.09l0.23 -0.89c0.06,-0.21 -0.32,-0.31 -0.37,-0.09z"/>
    <path class="fil1" d="M4.48 3.51c-1.66,0.19 -2,1.81 -1.97,3.05 0.04,1.44 0.13,2.96 1.02,4.22 0.13,0.18 0.47,0.01 0.33,-0.18 -0.75,-1.07 -0.89,-2.33 -0.94,-3.57 -0.05,-1.1 -0.08,-2.98 1.56,-3.17 0.24,-0.03 0.25,-0.38 0,-0.35z"/>
    <path class="fil1" d="M4.66 10.16c-0.15,0.09 -0.27,0.23 -0.35,0.38 -0.08,0.15 -0.11,0.32 -0.1,0.48 0.02,0.23 0.41,0.23 0.39,0 -0.02,-0.1 0,-0.21 0.04,-0.31 0.05,-0.1 0.12,-0.19 0.21,-0.25 0.2,-0.14 0,-0.44 -0.19,-0.3z"/>
    <path class="fil1" d="M4.07 10.99c1.18,0.22 2.38,0.38 3.58,0.48l-0.18 -0.13 0.01 0.09c0.05,0.22 0.43,0.12 0.38,-0.09l-0.02 -0.09c-0.01,-0.04 -0.04,-0.07 -0.07,-0.09 -0.03,-0.02 -0.07,-0.04 -0.12,-0.04 -1.16,-0.09 -2.33,-0.25 -3.47,-0.47 -0.25,-0.04 -0.35,0.29 -0.11,0.34l0 0z"/>
    <path class="fil1" d="M4.15 12.02c-0.34,-0.07 -0.7,-0.03 -1.02,0.1 -0.2,0.08 -0.06,0.39 0.14,0.32 0.27,-0.09 0.54,-0.16 0.82,-0.22 0.24,-0.05 0.14,-0.39 -0.11,-0.33 -0.27,0.05 -0.54,0.13 -0.81,0.22l0.15 0.31c0.23,-0.09 0.48,-0.11 0.73,-0.06 0.24,0.05 0.35,-0.29 0.1,-0.34z"/>
    <path class="fil1" d="M11.59 4.69c-0.14,0.04 -0.26,0.1 -0.36,0.18l0.31 0.21 0.14 -0.18 -0.33 -0.18c-0.09,0.16 -0.14,0.35 -0.14,0.53 0,0.04 0.01,0.07 0.04,0.1 0.02,0.03 0.05,0.05 0.08,0.06 0.04,0.01 0.08,0.02 0.11,0.01 0.04,0 0.08,-0.02 0.1,-0.04l0.31 -0.27c0.18,-0.16 -0.09,-0.39 -0.28,-0.24 -0.17,0.12 -0.3,0.29 -0.36,0.49 -0.06,0.17 0.19,0.27 0.33,0.17l0.58 -0.46 -0.31 -0.21 -0.36 0.51c-0.11,0.14 0.1,0.35 0.26,0.24l0.93 -0.62 -0.27 -0.24 -0.37 0.5c-0.13,0.17 0.15,0.33 0.31,0.21l0.56 -0.43 -0.31 -0.21 -0.29 0.53c-0.08,0.14 0.09,0.35 0.26,0.24 0.23,-0.15 0.43,-0.32 0.61,-0.51l-0.33 -0.17 -0.18 0.5c-0.07,0.19 0.25,0.31 0.35,0.14l0.31 -0.52 -0.36 -0.09 0.04 0.77c0,0.04 0.02,0.08 0.05,0.12 0.03,0.03 0.07,0.05 0.12,0.05 0.04,0.01 0.09,0 0.13,-0.02 0.04,-0.03 0.07,-0.06 0.08,-0.1l0.31 -0.8 -0.38 -0.05 -0.01 1.03c0,0.23 0.38,0.23 0.39,0l0.04 -0.88 -0.39 0c0.03,0.7 0.01,1.41 -0.05,2.12l0.39 0 -0.1 -2.11c-0.01,-0.23 -0.37,-0.22 -0.39,0l-0.25 2.32 0.38 0c-0.07,-0.67 -0.09,-1.34 -0.06,-2.02l-0.39 0c0.01,0.63 -0.03,1.26 -0.13,1.88l0.38 0c-0.16,-0.69 -0.25,-1.39 -0.24,-2.09 0,-0.22 -0.39,-0.22 -0.39,0l-0.06 2.16 0.39 0c-0.09,-0.66 -0.12,-1.33 -0.07,-2l-0.39 0c0,0.62 -0.06,1.23 -0.16,1.84l0.38 0.05 -0.17 -1.63c-0.03,-0.22 -0.39,-0.23 -0.39,0 -0.01,0.54 -0.07,1.07 -0.19,1.59l0.38 0.05 -0.05 -1.74c-0.01,-0.23 -0.37,-0.22 -0.39,0l-0.16 1.67 0.39 0 -0.08 -1.56c-0.01,-0.18 -0.36,-0.25 -0.39,-0.05l-0.24 1.59 0.38 0.04 0.02 -1.45 -0.39 0c0.08,1.17 0.07,2.34 -0.02,3.52l0.39 0 0.23 -3.23 -0.38 0.05c0.24,1.34 0.27,2.72 0.08,4.07l0.39 0c-0.01,-1 0.05,-1.99 0.17,-2.98l-0.39 0c0.03,0.87 0.04,1.74 0.03,2.61 0,0.23 0.37,0.22 0.38,0 0.07,-0.87 0.17,-1.74 0.3,-2.6l-0.38 -0.05c0.03,0.89 0.02,1.79 -0.03,2.69 -0.02,0.22 0.36,0.22 0.39,0l0.25 -2.25 -0.39 0c0.05,0.77 0.06,1.54 0.03,2.32 -0.01,0.22 0.38,0.22 0.39,0 0.03,-0.79 0.14,-1.57 0.32,-2.33l-0.39 -0.05c0.1,0.74 0.14,1.49 0.12,2.23l0.39 0c-0.04,-0.78 0.01,-1.56 0.15,-2.33l-0.38 -0.05c0.1,0.75 0.14,1.5 0.1,2.24l0.39 0c-0.05,-0.95 0.08,-1.91 0.4,-2.83l-0.39 -0.05c-0.2,1.41 -0.12,2.82 -0.02,4.23 0.01,0.22 0.38,0.22 0.39,0l0.11 -3.28c0,-0.23 -0.38,-0.23 -0.39,0 -0.05,1.13 -0.05,2.27 0.02,3.41 0,0.04 0.02,0.09 0.06,0.12 0.03,0.03 0.08,0.05 0.14,0.05 0.05,0 0.1,-0.02 0.13,-0.05 0.04,-0.03 0.06,-0.08 0.06,-0.12 0.06,-0.57 0.03,-1.14 -0.09,-1.7 -0.04,-0.17 -0.32,-0.15 -0.38,0 -0.23,0.67 -0.38,1.37 -0.45,2.07l0.38 -0.05c-0.15,-0.46 -0.23,-0.95 -0.23,-1.43l-0.39 0c0,0.52 -0.04,1.04 -0.13,1.55l0.37 0c-0.16,-0.48 -0.26,-0.98 -0.29,-1.49 -0.02,-0.22 -0.4,-0.22 -0.39,0 0.03,0.62 -0.01,1.23 -0.12,1.84l0.38 0c-0.21,-0.72 -0.16,-1.49 0.15,-2.18l-0.27 0.1c0.54,0.38 0.47,1.12 0.41,1.66l0.39 0 0.21 -2.09 -0.39 0c0.02,0.16 0.16,1.77 0.02,1.78l0.18 0.12c-0.22,-0.58 -0.33,-1.19 -0.33,-1.8 0,-0.23 -0.39,-0.23 -0.39,0 0,0.76 -0.14,1.51 -0.4,2.23l0.37 0c-0.24,-0.76 -0.39,-1.55 -0.45,-2.34l-0.39 0c0.05,0.61 0.04,1.21 -0.01,1.82l0.39 0c-0.11,-0.77 -0.15,-1.55 -0.1,-2.32l-0.39 0c0.02,0.76 -0.02,1.53 -0.13,2.29l0.39 0 -0.14 -1.94c0,-0.05 -0.02,-0.09 -0.06,-0.13 -0.04,-0.03 -0.09,-0.05 -0.14,-0.05 -0.05,0 -0.1,0.02 -0.14,0.05 -0.03,0.04 -0.05,0.08 -0.05,0.13 -0.06,0.93 -0.1,1.87 -0.1,2.8l0.39 0 -0.01 -2.02 -0.39 0c0.17,1.12 0.26,2.24 0.28,3.37l0.39 0c-0.03,-0.64 0,-1.28 0.08,-1.91l-0.39 0c0.01,0.6 0.04,1.2 0.09,1.8 0.01,0.22 0.39,0.23 0.39,0 -0.03,-0.57 -0.01,-1.15 0.03,-1.72l-0.39 0c0.09,0.58 0.13,1.16 0.12,1.74 0,0.23 0.38,0.22 0.39,0l0.08 -1.5 -0.39 0c0.06,0.52 -0.02,1.04 -0.23,1.53l0.37 0c-0.13,-0.44 -0.22,-0.89 -0.26,-1.34 -0.02,-0.22 -0.39,-0.23 -0.39,0l0 1.44 0.39 0 0 -0.45c0,-0.23 -0.39,-0.23 -0.39,0l0 1.14c0,0.2 0.32,0.23 0.38,0.04l0.24 -0.68 -0.39 -0.05 0.02 0.41c0,0.03 0.02,0.07 0.04,0.1 0.03,0.03 0.06,0.05 0.1,0.06 0.05,0.01 0.09,0.01 0.13,-0.01 0.04,-0.01 0.07,-0.03 0.09,-0.07 0.11,-0.15 0.2,-0.32 0.26,-0.5l-0.38 0c0.05,0.12 0.05,0.25 0,0.37 -0.05,0.18 0.26,0.32 0.36,0.13l0.18 -0.37 -0.36 -0.09 0.01 0.31c0.01,0.21 0.3,0.22 0.38,0.04l0.13 -0.26 -0.38 0 0.07 0.22c0.05,0.18 0.4,0.15 0.38,-0.05l-0.02 0.01 -0.2 0 0.05 0.03 -0.1 -0.15 0 0.06 0.1 -0.15 -0.04 0.02 0.29 0.15c-0.03,-0.67 -0.05,-1.33 -0.08,-2 0,-0.22 -0.37,-0.22 -0.38,0 -0.05,0.51 -0.06,1.02 -0.05,1.53 0.01,0.23 0.37,0.22 0.39,0l0.17 -1.66 -0.39 0c0.06,0.58 0.09,1.17 0.08,1.75l0.39 0c0,-0.6 0.09,-1.21 0.26,-1.8l-0.39 -0.04 0.01 1.41c0,0.23 0.36,0.22 0.39,0l0.13 -1.16 -0.39 0c0.03,0.36 0.04,0.73 0.02,1.09 -0.01,0.23 0.37,0.22 0.39,0 0.04,-0.46 0.13,-0.91 0.27,-1.36l-0.38 -0.04 0.01 1.12c0,0.22 0.37,0.22 0.39,0 0.03,-0.51 0.09,-1.02 0.19,-1.52l-0.38 -0.05c-0.03,0.7 -0.01,1.4 0.04,2.1 0.01,0.22 0.38,0.23 0.39,0l0.04 -1.82 -0.39 0c0.01,0.9 0.05,1.78 0.12,2.67 0,0.05 0.02,0.09 0.06,0.13 0.03,0.03 0.08,0.05 0.13,0.05 0.06,0 0.11,-0.02 0.14,-0.05 0.04,-0.04 0.06,-0.08 0.06,-0.13l0.08 -0.75c0.02,-0.2 -0.35,-0.24 -0.39,-0.05l-0.15 0.77 0.37 0c-0.05,-0.3 -0.06,-0.61 -0.04,-0.92 0.02,-0.2 -0.34,-0.24 -0.38,-0.05l-0.2 0.98 0.38 0.05c-0.06,-0.37 -0.08,-0.75 -0.07,-1.13l-0.39 0c0.01,0.44 0,0.88 -0.04,1.32l0.39 0 -0.04 -0.92c-0.01,-0.19 -0.35,-0.25 -0.38,-0.05l-0.13 0.74 0.37 0c-0.05,-0.2 -0.07,-0.4 -0.06,-0.6 0.01,-0.19 -0.35,-0.25 -0.38,-0.05 -0.04,0.19 -0.11,0.38 -0.23,0.55l0.37 0.09c0.02,-0.23 0.06,-0.45 0.11,-0.67l-0.37 -0.1 -0.17 0.67 0.38 0.05c0.01,-0.22 0.05,-0.44 0.12,-0.65l-0.38 -0.05c0.03,0.16 0,0.33 -0.09,0.47l0.36 0.04c-0.07,-0.12 -0.09,-0.26 -0.08,-0.4 0.02,-0.21 -0.32,-0.23 -0.38,-0.05 -0.07,0.18 -0.18,0.35 -0.33,0.48 -0.18,0.16 0.1,0.41 0.27,0.25 0.2,-0.18 0.35,-0.4 0.43,-0.64l-0.38 -0.04c-0.02,0.17 0.01,0.34 0.09,0.5 0.06,0.12 0.27,0.19 0.36,0.04 0.12,-0.2 0.17,-0.43 0.14,-0.65 -0.02,-0.19 -0.32,-0.25 -0.38,-0.05 -0.08,0.25 -0.13,0.49 -0.13,0.75 -0.01,0.19 0.33,0.23 0.38,0.04l0.16 -0.66c0.06,-0.22 -0.32,-0.32 -0.37,-0.1 -0.07,0.25 -0.11,0.51 -0.13,0.77 -0.02,0.17 0.27,0.22 0.36,0.08 0.13,-0.19 0.22,-0.4 0.26,-0.62l-0.38 -0.05c-0.01,0.23 0.02,0.47 0.08,0.7 0.04,0.16 0.34,0.17 0.37,0l0.13 -0.74 -0.38 -0.05 0.03 0.93c0.01,0.22 0.37,0.22 0.39,0 0.04,-0.44 0.06,-0.88 0.04,-1.32 0,-0.23 -0.39,-0.23 -0.39,0 0,0.37 0.02,0.75 0.07,1.12 0.03,0.18 0.34,0.26 0.39,0.05l0.21 -0.98 -0.38 -0.05c-0.02,0.34 -0.01,0.68 0.04,1.02 0.03,0.17 0.35,0.16 0.38,0l0.15 -0.77 -0.38 -0.05 -0.08 0.76 0.39 0c-0.07,-0.89 -0.1,-1.78 -0.11,-2.67 0,-0.23 -0.38,-0.23 -0.39,0l-0.04 1.82 0.39 0c-0.05,-0.7 -0.07,-1.4 -0.04,-2.1 0.01,-0.19 -0.34,-0.24 -0.38,-0.05 -0.11,0.53 -0.18,1.07 -0.21,1.61l0.39 0 -0.01 -1.12c0,-0.04 -0.02,-0.08 -0.05,-0.11 -0.03,-0.04 -0.07,-0.06 -0.12,-0.06 -0.05,-0.01 -0.09,0 -0.13,0.02 -0.04,0.03 -0.07,0.06 -0.08,0.1 -0.15,0.48 -0.24,0.96 -0.29,1.45l0.39 0c0.02,-0.36 0.01,-0.73 -0.02,-1.09 0,-0.05 -0.02,-0.09 -0.06,-0.12 -0.04,-0.04 -0.09,-0.05 -0.14,-0.05 -0.05,0 -0.1,0.01 -0.14,0.05 -0.03,0.03 -0.05,0.07 -0.05,0.12l-0.13 1.17 0.39 0 -0.01 -1.42c0,-0.19 -0.33,-0.24 -0.38,-0.05 -0.18,0.62 -0.27,1.26 -0.28,1.9 0,0.22 0.39,0.22 0.39,0 0.01,-0.59 -0.01,-1.17 -0.07,-1.76 0,-0.04 -0.02,-0.09 -0.06,-0.12 -0.04,-0.03 -0.09,-0.05 -0.14,-0.05 -0.05,0 -0.1,0.02 -0.14,0.05 -0.03,0.03 -0.05,0.08 -0.05,0.12l-0.17 1.67 0.39 0c-0.01,-0.51 0,-1.02 0.04,-1.53l-0.39 0c0.03,0.66 0.05,1.33 0.08,1.99 0,0.03 0.01,0.06 0.02,0.09 0.02,0.03 0.05,0.05 0.08,0.06 0.03,0.02 0.06,0.03 0.09,0.03 0.04,0 0.07,-0.01 0.1,-0.03l0.04 -0.02c0.03,-0.01 0.06,-0.03 0.07,-0.06 0.02,-0.03 0.03,-0.06 0.03,-0.09 0,-0.04 -0.01,-0.09 -0.03,-0.13 -0.03,-0.05 -0.07,-0.08 -0.11,-0.1 -0.03,-0.02 -0.07,-0.03 -0.1,-0.03 -0.04,0 -0.07,0.01 -0.1,0.03 -0.06,0.02 -0.11,0.06 -0.14,0.12 -0.03,0.05 -0.04,0.11 -0.03,0.17l0.38 -0.05 -0.07 -0.21c-0.05,-0.19 -0.3,-0.15 -0.37,0l-0.12 0.26 0.38 0.04 -0.02 -0.3c0,-0.16 -0.27,-0.26 -0.36,-0.09l-0.18 0.37 0.35 0.14c0.06,-0.18 0.06,-0.37 0,-0.55 -0.04,-0.17 -0.32,-0.16 -0.37,0 -0.05,0.14 -0.12,0.29 -0.22,0.42l0.37 0.08 -0.02 -0.4c0,-0.04 -0.02,-0.08 -0.05,-0.11 -0.03,-0.03 -0.07,-0.05 -0.12,-0.06 -0.05,0 -0.09,0.01 -0.13,0.03 -0.04,0.02 -0.07,0.05 -0.08,0.09l-0.24 0.69 0.39 0.04 0 -1.14 -0.39 0 0 0.46c0,0.22 0.39,0.22 0.39,0l0 -1.44 -0.39 0c0.04,0.48 0.13,0.96 0.28,1.42 0.05,0.18 0.31,0.16 0.37,0 0.22,-0.51 0.31,-1.07 0.25,-1.62 -0.02,-0.22 -0.38,-0.22 -0.39,0l-0.08 1.51 0.39 0c0.01,-0.59 -0.03,-1.17 -0.12,-1.75 -0.03,-0.21 -0.37,-0.23 -0.39,0 -0.04,0.58 -0.06,1.15 -0.04,1.72l0.39 0c-0.05,-0.59 -0.08,-1.19 -0.08,-1.79 0,-0.23 -0.36,-0.22 -0.39,0 -0.08,0.63 -0.11,1.26 -0.08,1.9 0,0.22 0.39,0.23 0.38,0 -0.01,-1.12 -0.11,-2.25 -0.27,-3.36 -0.03,-0.22 -0.39,-0.23 -0.39,0l0.01 2.02c0,0.22 0.39,0.22 0.39,0 0,-0.94 0.03,-1.87 0.1,-2.81l-0.39 0 0.14 1.94c0,0.05 0.02,0.09 0.06,0.12 0.03,0.04 0.08,0.05 0.14,0.05 0.05,0 0.1,-0.01 0.13,-0.05 0.04,-0.03 0.06,-0.07 0.06,-0.12 0.11,-0.76 0.15,-1.53 0.13,-2.29 0,-0.23 -0.37,-0.23 -0.39,0 -0.05,0.77 -0.01,1.55 0.1,2.32 0,0.04 0.02,0.09 0.06,0.12 0.03,0.03 0.08,0.05 0.13,0.05 0.05,0 0.1,-0.02 0.14,-0.05 0.04,-0.03 0.06,-0.08 0.06,-0.12 0.05,-0.61 0.06,-1.21 0.01,-1.81 -0.02,-0.23 -0.4,-0.23 -0.39,0 0.05,0.82 0.21,1.63 0.46,2.42 0.02,0.04 0.04,0.07 0.07,0.09 0.04,0.02 0.08,0.04 0.12,0.04 0.04,0 0.08,-0.02 0.12,-0.04 0.03,-0.02 0.06,-0.05 0.07,-0.09 0.27,-0.75 0.41,-1.53 0.42,-2.32l-0.39 0c-0.01,0.65 0.11,1.29 0.35,1.9 0.01,0.03 0.03,0.07 0.07,0.09 0.03,0.02 0.07,0.04 0.11,0.04 0.35,-0.03 0.41,-0.31 0.42,-0.58 0.03,-0.51 0.02,-1.03 -0.04,-1.55 0,-0.04 -0.02,-0.09 -0.06,-0.12 -0.04,-0.03 -0.09,-0.05 -0.14,-0.05 -0.05,0 -0.1,0.02 -0.14,0.05 -0.03,0.03 -0.05,0.08 -0.05,0.12l-0.22 2.09c-0.02,0.23 0.37,0.23 0.39,0 0.08,-0.7 0.08,-1.48 -0.6,-1.96 -0.11,-0.07 -0.25,0.02 -0.29,0.11 -0.33,0.75 -0.38,1.58 -0.15,2.37 0.04,0.15 0.34,0.17 0.37,0 0.12,-0.64 0.16,-1.29 0.13,-1.93l-0.39 0c0.04,0.53 0.14,1.06 0.31,1.57 0.05,0.16 0.35,0.18 0.38,0 0.09,-0.54 0.14,-1.09 0.14,-1.64 0,-0.22 -0.39,-0.22 -0.39,0 0,0.52 0.08,1.03 0.25,1.52 0.06,0.2 0.36,0.15 0.38,-0.04 0.07,-0.67 0.21,-1.33 0.44,-1.97l-0.38 0c0.12,0.52 0.14,1.06 0.08,1.6l0.39 0c-0.07,-1.14 -0.07,-2.27 -0.02,-3.41l-0.39 0 -0.11 3.28 0.39 0c-0.1,-1.41 -0.18,-2.82 0.02,-4.23 0.03,-0.2 -0.32,-0.22 -0.38,-0.04 -0.33,0.95 -0.46,1.94 -0.41,2.92 0,0.05 0.02,0.1 0.06,0.13 0.03,0.03 0.08,0.05 0.14,0.05 0.05,0 0.1,-0.02 0.13,-0.05 0.04,-0.03 0.06,-0.08 0.06,-0.13 0.04,-0.74 0,-1.49 -0.1,-2.24 -0.03,-0.17 -0.35,-0.26 -0.39,-0.04 -0.14,0.8 -0.19,1.61 -0.16,2.42 0.01,0.22 0.39,0.22 0.39,0 0.02,-0.74 -0.02,-1.49 -0.12,-2.23 -0.02,-0.18 -0.33,-0.26 -0.38,-0.05 -0.19,0.8 -0.3,1.61 -0.33,2.43l0.39 0c0.03,-0.78 0.02,-1.55 -0.03,-2.32 0,-0.04 -0.02,-0.09 -0.05,-0.12 -0.04,-0.03 -0.09,-0.05 -0.14,-0.05 -0.05,0 -0.1,0.02 -0.14,0.05 -0.04,0.03 -0.06,0.08 -0.06,0.12l-0.25 2.25 0.38 0c0.06,-0.9 0.07,-1.79 0.04,-2.69 -0.01,-0.18 -0.36,-0.25 -0.39,-0.05 -0.13,0.9 -0.24,1.8 -0.31,2.7l0.39 0c0.01,-0.87 0.01,-1.74 -0.02,-2.61 -0.01,-0.23 -0.36,-0.22 -0.39,0 -0.12,0.99 -0.18,1.98 -0.18,2.98 0,0.23 0.36,0.22 0.39,0 0.19,-1.39 0.16,-2.79 -0.09,-4.17 -0.03,-0.2 -0.37,-0.14 -0.38,0.05l-0.23 3.23c-0.02,0.22 0.37,0.22 0.39,0 0.09,-1.18 0.09,-2.35 0.02,-3.52 -0.01,-0.23 -0.39,-0.23 -0.39,0l-0.02 1.45c0,0.19 0.36,0.25 0.39,0.05l0.24 -1.58 -0.39 -0.05 0.09 1.56c0,0.05 0.02,0.09 0.06,0.13 0.03,0.03 0.08,0.05 0.13,0.05 0.06,0 0.1,-0.02 0.14,-0.05 0.04,-0.04 0.06,-0.08 0.06,-0.13l0.16 -1.67 -0.39 0 0.05 1.74c0,0.19 0.34,0.24 0.38,0.04 0.13,-0.55 0.2,-1.11 0.21,-1.68l-0.39 0 0.18 1.63c0.02,0.18 0.35,0.26 0.38,0.04 0.11,-0.63 0.17,-1.28 0.17,-1.93 0,-0.22 -0.38,-0.22 -0.39,0 -0.04,0.67 -0.02,1.34 0.08,2 0.03,0.22 0.38,0.23 0.38,0l0.06 -2.16 -0.39 0c0,0.74 0.08,1.47 0.26,2.19 0.03,0.15 0.34,0.17 0.37,0 0.1,-0.66 0.15,-1.32 0.14,-1.97 0,-0.23 -0.38,-0.23 -0.39,0 -0.03,0.67 -0.01,1.34 0.07,2.02 0,0.04 0.02,0.09 0.05,0.12 0.04,0.03 0.09,0.05 0.14,0.05 0.05,0 0.1,-0.02 0.14,-0.05 0.03,-0.03 0.06,-0.08 0.06,-0.12l0.25 -2.33 -0.39 0 0.1 2.11c0,0.04 0.02,0.09 0.06,0.12 0.03,0.03 0.08,0.05 0.13,0.05 0.06,0 0.11,-0.02 0.14,-0.05 0.04,-0.03 0.06,-0.08 0.06,-0.12 0.06,-0.71 0.07,-1.42 0.05,-2.12 0,-0.05 -0.02,-0.09 -0.06,-0.13 -0.03,-0.03 -0.08,-0.05 -0.14,-0.05 -0.05,0 -0.1,0.02 -0.13,0.05 -0.04,0.04 -0.06,0.08 -0.06,0.13l-0.04 0.88 0.39 0 0.01 -1.02c0,-0.21 -0.31,-0.23 -0.39,-0.05l-0.31 0.8 0.39 0.05 -0.04 -0.78c-0.01,-0.16 -0.27,-0.24 -0.36,-0.08l-0.31 0.51 0.35 0.14 0.19 -0.5c0.06,-0.16 -0.2,-0.31 -0.33,-0.17 -0.15,0.17 -0.33,0.32 -0.53,0.45l0.27 0.24 0.3 -0.53c0.02,-0.04 0.03,-0.08 0.02,-0.12 -0.01,-0.04 -0.04,-0.08 -0.08,-0.1 -0.03,-0.03 -0.08,-0.04 -0.12,-0.04 -0.05,0 -0.09,0.02 -0.13,0.05l-0.56 0.42 0.31 0.21 0.36 -0.49c0.11,-0.14 -0.1,-0.34 -0.26,-0.24l-0.92 0.62 0.26 0.24 0.37 -0.51c0.13,-0.17 -0.14,-0.34 -0.3,-0.21l-0.59 0.45 0.33 0.17c0.04,-0.13 0.13,-0.25 0.26,-0.33l-0.28 -0.25 -0.3 0.26 0.33 0.12c-0.01,-0.12 0.02,-0.24 0.08,-0.35 0.03,-0.04 0.04,-0.09 0.03,-0.14 -0.02,-0.04 -0.05,-0.08 -0.09,-0.1 -0.05,-0.02 -0.1,-0.03 -0.15,-0.02 -0.05,0.01 -0.1,0.04 -0.12,0.08l-0.15 0.19c-0.13,0.17 0.15,0.33 0.31,0.21l0.18 -0.09c0.24,-0.07 0.14,-0.4 -0.1,-0.34l0 0z"/>
    <path class="fil1" d="M13.54 12.58l0 -0.03c0,-0.04 -0.02,-0.08 -0.04,-0.11 -0.03,-0.03 -0.06,-0.05 -0.1,-0.06l-0.04 -0.02c-0.04,0 -0.07,0 -0.11,0 -0.03,0.01 -0.06,0.03 -0.08,0.05 -0.25,0.17 -0.32,0.69 -0.39,0.94l0.38 0.09c0.01,-0.09 0.05,-0.18 0.12,-0.25l-0.33 -0.13c0,0.08 -0.02,0.15 -0.06,0.22 -0.04,0.07 -0.09,0.13 -0.16,0.18l0.32 0.07 -0.02 -0.14c0.06,-0.22 -0.31,-0.31 -0.37,-0.1 -0.04,0.17 -0.15,0.31 -0.3,0.4 -0.04,0.02 -0.07,0.06 -0.08,0.1 -0.02,0.04 -0.01,0.08 0.01,0.12 0.01,0.04 0.05,0.07 0.09,0.09 0.04,0.02 0.09,0.02 0.13,0.01l0.44 -0.08 -0.1 -0.34 -0.77 0.15c-0.21,0.04 -0.17,0.37 0.05,0.35l0.16 0.02 0.09 -0.29c-0.05,0.02 -0.1,0.03 -0.15,0.02 -0.05,-0.01 -0.1,-0.03 -0.13,-0.07 0.05,-0.07 0.09,-0.14 0.12,-0.21 0.06,-0.12 0.1,-0.24 0.14,-0.37 0.07,-0.28 0.09,-0.57 0.07,-0.85 -0.03,-0.7 -0.25,-1.38 -0.29,-2.07 0,-0.05 -0.02,-0.09 -0.06,-0.13 -0.04,-0.03 -0.09,-0.05 -0.14,-0.05 -0.05,0 -0.1,0.02 -0.14,0.05 -0.03,0.04 -0.05,0.08 -0.05,0.13 -0.03,0.4 -0.03,0.8 -0.01,1.21 0.01,0.18 0.34,0.25 0.38,0.04 0.11,-0.62 0.18,-1.25 0.21,-1.88l-0.39 0 0.09 0.94c0.02,0.15 0.28,0.27 0.36,0.09 0.06,-0.1 0.09,-0.21 0.08,-0.33 0,-0.11 -0.04,-0.22 -0.11,-0.32 -0.14,-0.19 -0.47,-0.01 -0.34,0.18l0.04 0.3 0.36 0.08 -0.09 -0.94c-0.02,-0.22 -0.38,-0.23 -0.39,0 -0.02,0.6 -0.09,1.2 -0.2,1.79l0.39 0.05c-0.02,-0.41 -0.02,-0.81 0.01,-1.21l-0.39 0c0.05,0.94 0.47,1.89 0.23,2.83 -0.06,0.25 -0.4,0.59 -0.26,0.86 0.13,0.27 0.49,0.26 0.76,0.19 0.13,-0.03 0.2,-0.21 0.09,-0.29 -0.14,-0.1 -0.25,-0.15 -0.44,-0.12l0.05 0.34 0.77 -0.15c0.24,-0.05 0.14,-0.38 -0.1,-0.34l-0.44 0.08 0.15 0.32c0.24,-0.14 0.41,-0.35 0.48,-0.6l-0.38 -0.1c-0.03,0.11 -0.02,0.23 0.02,0.33 0.01,0.03 0.03,0.06 0.05,0.08 0.03,0.02 0.06,0.04 0.09,0.04 0.03,0.01 0.07,0.01 0.1,0 0.03,0 0.06,-0.02 0.09,-0.04 0.11,-0.08 0.19,-0.17 0.25,-0.28 0.06,-0.12 0.09,-0.24 0.08,-0.36 0,-0.14 -0.22,-0.25 -0.33,-0.12 -0.11,0.12 -0.19,0.26 -0.23,0.41 -0.05,0.22 0.32,0.32 0.38,0.1 0.05,-0.17 0.13,-0.68 0.28,-0.79l-0.19 0.04 0.04 0.02 -0.14 -0.17 0 0.03c-0.01,0.23 0.38,0.22 0.39,0l0 0z"/>
    <path class="fil1" d="M14.64 11.8c0.4,-0.07 0.81,-0.11 1.22,-0.11 0.25,0 0.25,-0.34 0,-0.34 -0.45,0 -0.89,0.04 -1.33,0.12 -0.24,0.04 -0.14,0.38 0.11,0.33l0 0z"/>
    <path class="fil1" d="M15.82 11.77l-0.44 0c-0.25,0 -0.25,0.35 0,0.35l0.44 0c0.25,0 0.25,-0.35 0,-0.35z"/>
    <path class="fil1" d="M15.58 12.23l-0.04 0.36c0,0.05 0.02,0.09 0.06,0.12 0.03,0.04 0.08,0.05 0.14,0.05 0.05,0 0.1,-0.01 0.13,-0.05 0.04,-0.03 0.06,-0.07 0.06,-0.12l0.04 -0.36c0,-0.04 -0.02,-0.09 -0.06,-0.12 -0.03,-0.03 -0.08,-0.05 -0.13,-0.05 -0.06,0 -0.1,0.02 -0.14,0.05 -0.04,0.03 -0.06,0.08 -0.06,0.12z"/>
    <path class="fil1" d="M15.6 12.19c-0.03,0.08 -0.08,0.16 -0.15,0.21 -0.07,0.06 -0.15,0.1 -0.25,0.12 -0.24,0.05 -0.14,0.39 0.11,0.33 0.16,-0.03 0.3,-0.1 0.42,-0.2 0.11,-0.1 0.2,-0.23 0.25,-0.37 0.07,-0.21 -0.31,-0.3 -0.38,-0.09z"/>
    <path class="fil1" d="M15.85 13.34l0.06 -0.04c0.05,-0.01 0.1,-0.04 0.12,-0.08 0.03,-0.04 0.03,-0.09 0.02,-0.13 -0.1,-0.21 -0.29,-0.35 -0.55,-0.32l0.19 0.22c0.04,-0.08 0.08,-0.16 0.14,-0.23l-0.35 -0.13c-0.04,0.14 -0.05,0.29 0.07,0.4 0.05,0.05 0.11,0.09 0.19,0.09 0.05,0 0.1,0 0.15,-0.02l-0.11 -0.08c-0.04,-0.05 0,0.09 0,0.11l0 0.21c0,0.06 0,0.11 0,0.17 0,0.04 -0.03,0.16 0.02,0.14 -0.23,0.08 -0.13,0.42 0.1,0.34 0.35,-0.13 0.27,-0.49 0.26,-0.78 0,-0.12 0.04,-0.28 -0.06,-0.38 -0.12,-0.12 -0.23,-0.04 -0.37,-0.06l0.14 0.05c-0.05,-0.02 -0.06,-0.05 -0.02,-0.1 0.01,-0.04 0,-0.08 -0.02,-0.12 -0.02,-0.03 -0.06,-0.06 -0.1,-0.08 -0.04,-0.01 -0.09,-0.02 -0.13,0 -0.04,0.01 -0.08,0.03 -0.11,0.07 -0.07,0.09 -0.13,0.2 -0.18,0.31 -0.01,0.02 -0.01,0.05 0,0.08 0,0.02 0.01,0.05 0.03,0.07 0.02,0.02 0.04,0.04 0.07,0.05 0.03,0.01 0.06,0.02 0.09,0.02 0.03,-0.01 0.07,-0.01 0.1,0 0.03,0.01 0.06,0.03 0.07,0.06l0.14 -0.21c-0.22,0.04 -0.33,0.18 -0.35,0.37 -0.03,0.22 0.36,0.22 0.39,0l0 0z"/>
    <path class="fil1" d="M13.92 11.52c0.02,0.95 0.06,1.9 0.13,2.85 0.02,0.22 0.41,0.22 0.39,0 -0.07,-0.95 -0.11,-1.9 -0.13,-2.85 0,-0.22 -0.39,-0.22 -0.39,0z"/>
    <path class="fil1" d="M11.12 11.31c0,0.66 0.04,1.33 0.11,1.99 0.02,0.22 0.41,0.22 0.39,0 -0.07,-0.66 -0.11,-1.33 -0.11,-1.99 0,-0.22 -0.39,-0.23 -0.39,0z"/>
    <path class="fil1" d="M6.91 11.53l4.05 -0.23c0.25,-0.01 0.25,-0.36 0,-0.34l-4.05 0.23c-0.25,0.01 -0.25,0.36 0,0.34z"/>
    <path class="fil1" d="M5.47 7.32c-0.14,0.25 -0.26,0.55 -0.16,0.83 0.04,0.11 0.12,0.21 0.24,0.27 0.11,0.06 0.24,0.08 0.37,0.06 0.25,-0.04 0.15,-0.38 -0.1,-0.34 -0.14,0.02 -0.16,-0.18 -0.16,-0.26 0.02,-0.13 0.07,-0.26 0.15,-0.38 0.12,-0.2 -0.22,-0.37 -0.34,-0.17l0 -0.01z"/>
    <path class="fil1" d="M8.87 6.64c0.06,0.15 0.12,0.42 0.31,0.49 0.2,0.06 0.34,-0.08 0.42,-0.23 0.01,-0.02 0.02,-0.05 0.02,-0.07 0.01,-0.03 0,-0.06 -0.01,-0.08 -0.01,-0.02 -0.03,-0.05 -0.05,-0.06 -0.02,-0.02 -0.05,-0.03 -0.08,-0.04 -0.19,-0.07 -0.4,-0.08 -0.59,-0.02 -0.2,0.06 -0.36,0.18 -0.46,0.34 -0.1,0.18 -0.14,0.37 -0.12,0.57 0.04,0.23 0.29,0.35 0.48,0.48 0.02,0.02 0.05,0.03 0.09,0.04 0.03,0.01 0.06,0.01 0.1,0 0.03,-0.01 0.06,-0.02 0.08,-0.04 0.03,-0.02 0.05,-0.05 0.06,-0.08 0.06,-0.15 0.09,-0.32 0.09,-0.49 -0.01,-0.16 -0.06,-0.33 -0.14,-0.48 -0.08,-0.17 -0.35,-0.07 -0.36,0.09 -0.01,0.3 -0.21,1.31 0.45,1.25 0.08,-0.01 0.16,-0.04 0.22,-0.09 0.07,-0.06 0.11,-0.13 0.12,-0.2 0.02,-0.23 -0.18,-0.34 -0.4,-0.36 -0.16,-0.02 -0.26,0.21 -0.14,0.29l0.41 0.29c0.03,0.03 0.08,0.05 0.12,0.05 0.05,0 0.09,-0.01 0.13,-0.04 0.04,-0.02 0.06,-0.06 0.07,-0.1 0.01,-0.04 0.01,-0.08 -0.02,-0.12l-0.05 -0.22 -0.37 0.09c0.12,0.2 0.28,0.43 0,0.59 -0.19,0.1 -0.51,0.18 -0.61,-0.08 -0.01,-0.04 -0.03,-0.07 -0.07,-0.09 -0.03,-0.02 -0.07,-0.04 -0.11,-0.04 -0.05,0 -0.09,0.02 -0.12,0.04 -0.03,0.02 -0.06,0.05 -0.07,0.09 -0.23,0.67 1.35,0.83 1.42,0.07 0.01,-0.14 -0.17,-0.21 -0.29,-0.15 -0.17,0.08 -0.35,0.19 -0.45,0.35 -0.11,0.19 0,0.34 -0.02,0.54l0.34 -0.13 -0.1 -0.07 0.05 0.16c0.09,-0.36 0.12,-0.73 0.11,-1.1 -0.01,-0.23 -0.4,-0.23 -0.39,0 0.01,0.34 -0.02,0.68 -0.1,1.01 -0.01,0.03 -0.01,0.06 0,0.09 0.01,0.03 0.03,0.06 0.05,0.08l0.1 0.08c0.03,0.02 0.06,0.04 0.1,0.04 0.04,0.01 0.08,0.01 0.11,-0.01 0.04,-0.01 0.07,-0.03 0.09,-0.06 0.02,-0.03 0.03,-0.06 0.03,-0.09 0.03,-0.27 -0.04,-0.43 0.27,-0.59l-0.29 -0.15c-0.03,0.29 -0.69,0.12 -0.66,0.02l-0.37 0c0.14,0.4 0.62,0.52 1.03,0.35 0.2,-0.07 0.46,-0.22 0.52,-0.42 0.07,-0.22 -0.11,-0.51 -0.23,-0.71 -0.09,-0.15 -0.38,-0.08 -0.37,0.09 0.01,0.14 0.05,0.27 0.12,0.4l0.31 -0.21 -0.41 -0.29 -0.14 0.3c-0.07,-0.01 0,-0.89 0,-0.95l-0.36 0.09c0.05,0.11 0.08,0.23 0.08,0.35 0,0.12 -0.03,0.24 -0.08,0.35l0.32 -0.08c-0.22,-0.15 -0.42,-0.26 -0.32,-0.55 0.08,-0.26 0.39,-0.33 0.64,-0.24l-0.12 -0.25 -0.02 0.05 0.16 0.09c-0.06,-0.1 -0.11,-0.21 -0.16,-0.33 -0.09,-0.2 -0.46,-0.11 -0.37,0.1l0 0z"/>
    <path class="fil1" d="M13.89 5.51c-0.03,0.42 -0.07,0.83 -0.13,1.24 -0.04,0.22 0.34,0.31 0.37,0.09 0.07,-0.44 0.12,-0.88 0.15,-1.33 0.02,-0.22 -0.37,-0.22 -0.39,0z"/>
    <path class="fil1" d="M10.96 8.6c-0.09,0.82 -0.15,1.64 -0.16,2.46 0,0.22 0.39,0.22 0.39,0 0.01,-0.82 0.07,-1.64 0.16,-2.46 0.03,-0.22 -0.36,-0.22 -0.39,0z"/>
    <path class="fil2 str0" d="M16.07 12.33c0.03,-0.02 0.06,0.03 0.06,0.06 0.06,0.41 0.08,0.83 0.06,1.24 -0.01,0.23 -0.02,0.49 -0.2,0.66 -0.2,0.18 -0.53,0.18 -0.82,0.17l-0.43 -0.02c-0.12,0 -0.24,-0.01 -0.35,-0.04 -0.22,-0.06 -0.41,-0.17 -0.56,-0.33 -0.02,-0.03 0.07,-0.03 0.06,0 -0.01,0.04 -0.06,0.05 -0.1,0.05 -0.65,0.05 -1.3,0.07 -1.94,0.05 -0.17,-0.02 -0.33,-0.01 -0.49,0.01 -0.13,0.03 -0.25,0.07 -0.37,0.11 -0.98,0.28 -2.04,-0.11 -3.06,-0.03 -0.44,0.04 -0.86,0.15 -1.29,0.18 -0.67,0.04 -1.32,-0.13 -1.98,-0.2 -0.45,-0.03 -0.9,-0.04 -1.35,-0.01 -0.34,0.03 -0.72,0.05 -0.99,-0.13 -0.34,-0.23 -0.38,-0.67 -0.38,-1.05l-0.04 -2.55 -0.02 -1.63c-0.02,-0.98 -0.03,-1.96 0.02,-2.95 0.02,-0.53 0.08,-1.08 0.36,-1.55 0.21,0.07 0.43,0.07 0.64,0.02 0.13,-0.36 0.48,-0.64 0.87,-0.79 0.4,-0.15 0.85,-0.16 1.27,-0.11 -0.21,0.18 -0.12,0.53 0.12,0.69 0.24,0.16 0.56,0.17 0.86,0.17 1.77,0 3.61,-0.3 5.29,0.23 0.64,0.2 1.31,0.05 1.98,0.08 0.19,0.01 0.37,0 0.56,-0.03 0.14,-0.03 0.27,-0.09 0.41,-0.13 0.34,-0.09 0.7,-0.06 1.05,-0.02 0.23,0.03 0.49,0.07 0.63,0.23 0.15,0.17 0.13,0.37 0.12,0.57 -0.03,0.6 -0.05,1.21 -0.04,1.81 0.03,1.77 0.36,3.49 0.05,5.24z"/>
    <path class="fil2 str1" d="M11.31 4.64c-0.15,3.16 -0.14,6.32 0.04,9.47"/>
    <path class="fil2 str1" d="M14.04 14.14l-0.13 -4.61 -0.06 -2.09c-0.03,-0.78 -0.05,-1.56 0.01,-2.34 0.02,-0.23 0,-0.52 -0.23,-0.61"/>
    <path class="fil2 str1" d="M11.17 11.29c0.78,-0.01 1.56,0 2.33,0.03"/>
    <path class="fil2 str1" d="M11.79 13.6c0.13,0.15 0.26,0.32 0.38,0.48"/>
    <path class="fil2 str1" d="M12.67 13.63c-0.02,0.12 -0.01,0.24 0.01,0.35"/>
    <line class="fil2 str1" x1="13.48" y1="13.64" x2="13.38" y2= "14.06" />
    <path class="fil2 str1" d="M13.05 13.66c-0.03,0.19 -0.04,0.37 -0.02,0.56"/>
    <path class="fil2 str1" d="M11.86 11.36c-0.13,0.14 -0.22,0.29 -0.27,0.46"/>
    <line class="fil2 str1" x1="12.31" y1="11.31" x2="12.31" y2= "11.74" />
    <line class="fil2 str1" x1="12.76" y1="11.39" x2="12.72" y2= "11.71" />
    <path class="fil2 str1" d="M13.14 11.29c0,-0.19 0.03,-0.38 0.09,-0.56"/>
    <path class="fil2 str1" d="M12.41 11.25c0.01,-0.02 0.02,-0.04 0.02,-0.07 -0.01,-0.02 -0.01,-0.05 -0.02,-0.07 -0.02,-0.02 -0.03,-0.04 -0.06,-0.05 -0.02,-0.02 -0.04,-0.03 -0.07,-0.04"/>
    <path class="fil2 str1" d="M11.76 11.21l-0.09 -0.35c-0.02,0 -0.04,0.01 -0.05,0.02 -0.01,0.01 -0.02,0.02 -0.03,0.04"/>
    <path class="fil2 str1" d="M11.93 4.73c-0.07,0.15 -0.16,0.3 -0.25,0.45"/>
    <polyline class="fil2 str1" points="12.22,4.81 12.09,5.28 12.1,5.2 "/>
    <line class="fil2 str1" x1="12.73" y1="4.78" x2="12.73" y2= "5.04" />
    <line class="fil2 str1" x1="13.28" y1="4.75" x2="13.34" y2= "5.31" />
    <path class="fil2 str1" d="M12.64 6.54c-0.02,0.73 -0.34,1.45 -0.23,2.17"/>
    <path class="fil2 str1" d="M12.99 7.6c-0.13,0.6 -0.24,1.21 -0.32,1.82"/>
    <path class="fil2 str1" d="M12.47 12.53c0.06,0.1 0.08,0.2 0.07,0.3"/>
    <path class="fil2 str1" d="M12.81 12.6c0.09,0.02 0.16,0.06 0.22,0.12"/>
    <path class="fil2 str1" d="M12.87 12.06c0.1,-0.05 0.2,-0.06 0.3,-0.05 -0.04,0.04 -0.09,0.06 -0.15,0.08"/>
    <path class="fil2 str1" d="M2.96 4.35c-0.3,0.88 -0.39,1.81 -0.42,2.74 -0.05,1.11 -0.01,2.28 0.63,3.22 0.19,0.28 0.43,0.54 0.76,0.69 0.31,0.15 0.66,0.18 1,0.21 2.1,0.18 4.21,0.19 6.31,0.02"/>
    <path class="fil2 str1" d="M4.91 3.5c-0.25,0.16 -0.34,0.46 -0.4,0.74 -0.42,1.96 -0.38,3.98 0.12,5.93l0.19 -0.03c-0.39,0.19 -0.81,0.59 -0.76,0.99"/>
    <path class="fil2 str1" d="M13.89 11.31c0.77,0 1.53,-0.03 2.3,-0.11 -0.02,-0.01 -0.04,-0.02 -0.06,-0.02 -0.03,0.01 -0.05,0.01 -0.06,0.03"/>
    <path class="fil2 str1" d="M1.95 11.05c0.46,0.14 0.94,0.22 1.42,0.24 0.25,0 0.5,0 0.75,-0.01l0.82 -0.03"/>
    <path class="fil2 str1" d="M5.18 11.77c1.6,0.15 3.22,0.2 4.83,0.15"/>
    <path class="fil2 str1" d="M8.58 12.42c0.57,-0.05 1.15,-0.06 1.73,-0.03"/>
    <path class="fil2 str1" d="M2.91 12.31c0.87,-0.04 1.73,-0.04 2.6,-0.02"/>
    <path class="fil2 str1" d="M3 11.85c0.53,-0.05 1.07,-0.04 1.6,0.05 0.05,0.01 0.12,0.04 0.11,0.08"/>
    <path class="fil2 str1" d="M3.69 12.87l6.01 0.38c0.04,0 0.09,0.01 0.1,0.05 0.01,0.03 -0.07,0.05 -0.06,0.01"/>
    <path class="fil2 str1" d="M6.11 12.6c0.48,-0.05 0.97,-0.05 1.45,0.01 0.15,0.02 0.3,0.05 0.39,0.14"/>
    <path class="fil2 str1" d="M9.83 12.73c0.42,0.01 0.84,0 1.26,-0.06"/>
    <path class="fil2 str1" d="M11.32 11.91l-0.63 -0.05c-0.02,0 -0.04,0 -0.05,0.01 -0.01,0.02 0.03,0.03 0.02,0.01"/>
    <polyline class="fil2 str1" points="13.95,12.41 15.15,12.44 14.81,12.41 "/>
    <path class="fil2 str1" d="M13.89 11.93c0.43,-0.02 0.86,-0.03 1.28,-0.03"/>
    <path class="fil2 str1" d="M16 11.74c-0.17,-0.03 -0.35,-0.01 -0.51,0.06"/>
    <path class="fil2 str1" d="M15.83 12.36c-0.15,-0.03 -0.3,0 -0.42,0.07"/>
    <line class="fil2 str1" x1="16.15" y1="13.02" x2="14.69" y2= "13.2" />
    <path class="fil2 str1" d="M16.07 13.63l-1.13 0.04c-0.03,0 -0.07,0 -0.07,0.03 -0.01,0.02 0.05,0.03 0.04,0.01"/>
    <path class="fil2 str1" d="M6.91 13.69c1.48,-0.06 2.96,-0.15 4.43,-0.28l-0.29 0.07"/>
    <line class="fil2 str1" x1="4.55" y1="13.47" x2="5.99" y2= "13.44" />
    <path class="fil2 str1" d="M3.12 13.5c0.22,-0.05 0.44,-0.07 0.66,-0.05"/>
    <line class="fil2 str1" x1="1.99" y1="12.75" x2="3.15" y2= "12.76" />
    <path class="fil2 str1" d="M1.87 12.06c0.19,-0.03 0.38,-0.05 0.57,-0.05"/>
    <path class="fil2 str1" d="M1.99 11.57c0.14,0.04 0.28,0 0.42,-0.02 0.14,-0.01 0.31,0 0.39,0.11"/>
    <path class="fil2 str1" d="M1.99 13.83c1.15,-0.05 2.3,-0.07 3.46,-0.05"/>
    <path class="fil2 str1" d="M4.41 4.83c-0.03,0.19 0.13,0.38 0.33,0.46 0.2,0.08 0.43,0.09 0.65,0.09l5.81 0.05"/>
    <path class="fil2 str1" d="M13.8 5.39c0.29,0.01 0.58,0 0.86,-0.01 0.01,0.04 0.03,0.09 0.06,0.12 0.03,0.04 0.07,0.08 0.12,0.1 0.06,0.03 0.15,0.05 0.18,0.11 0.02,0.04 0.03,0.08 0.03,0.13 -0.07,1.37 -0.1,2.75 -0.08,4.13 -0.09,0.03 -0.17,0.07 -0.24,0.14 -0.06,0.07 -0.09,0.15 -0.1,0.24l-0.71 0"/>
    <path class="fil2 str1" d="M4.46 10.33c0.77,-0.11 1.55,-0.09 2.32,-0.06l4.35 0.16 -0.17 -0.05"/>
    <path class="fil2 str1" d="M5.63 7.39c-0.11,-0.04 -0.22,0.08 -0.24,0.19 -0.03,0.09 -0.02,0.18 0.01,0.26 0.04,0.08 0.1,0.16 0.18,0.21 0.07,0.06 0.17,0.08 0.27,0.08 0.1,0 0.2,-0.02 0.28,-0.08 0.07,-0.06 0.12,-0.14 0.14,-0.23 0.01,-0.08 -0.01,-0.17 -0.07,-0.25 -0.06,-0.07 -0.15,-0.12 -0.24,-0.15 -0.13,-0.05 -0.28,-0.06 -0.42,-0.02 -0.06,0.01 -0.13,0.05 -0.18,0.09 -0.04,0.05 -0.08,0.1 -0.1,0.17 -0.01,0.06 0,0.12 0.04,0.18 0.03,0.05 0.09,0.09 0.15,0.12"/>
    <path class="fil2 str1" d="M7.3 7.53c-0.03,0.51 0.13,1.01 0.34,1.48 0.09,0.2 0.19,0.4 0.36,0.54 0.29,0.25 0.74,0.29 1.15,0.26 0.19,-0.01 0.38,-0.05 0.55,-0.13 0.21,-0.11 0.35,-0.29 0.47,-0.47 0.33,-0.52 0.55,-1.1 0.52,-1.69 -0.04,-0.59 -0.36,-1.18 -0.94,-1.48 -1.2,-0.63 -2.39,0.42 -2.45,1.49z"/>
    <path class="fil2 str1" d="M8.91 6.31c0.03,-0.04 0.08,-0.05 0.13,-0.05 0.05,0 0.1,0.01 0.13,0.05 0.04,0.04 0.04,0.1 0.08,0.14 0.03,0.03 0.06,0.06 0.1,0.08 0.2,0.12 0.35,0.29 0.44,0.49 0,0.02 0.01,0.03 0.01,0.05 0,0.02 -0.01,0.03 -0.01,0.05 -0.02,0.02 -0.05,0.03 -0.07,0.03l-0.34 0.07c0,-0.05 -0.02,-0.1 -0.07,-0.14 -0.04,-0.04 -0.1,-0.06 -0.16,-0.06l0.04 0.53c0.13,0.01 0.26,0.05 0.37,0.11 0.11,0.07 0.2,0.16 0.26,0.26 0.07,0.11 0.1,0.23 0.1,0.35 0.01,0.12 -0.02,0.24 -0.07,0.35 -0.09,0.2 -0.29,0.38 -0.53,0.35 -0.02,-0.01 -0.03,-0.01 -0.05,-0.01 -0.02,0.01 -0.04,0.01 -0.05,0.02 -0.02,0.02 -0.03,0.04 -0.03,0.07l-0.05 0.32c-0.06,-0.01 -0.13,-0.03 -0.19,-0.06l-0.01 -0.28c-0.08,0.01 -0.16,0 -0.23,-0.02 -0.07,-0.02 -0.14,-0.06 -0.2,-0.1 -0.11,-0.1 -0.2,-0.22 -0.26,-0.35 -0.02,-0.03 -0.04,-0.07 -0.04,-0.11 -0.01,-0.03 -0.01,-0.07 0,-0.11 0.07,-0.12 0.29,-0.09 0.39,0.01 0.11,0.09 0.19,0.23 0.34,0.28l-0.03 -0.6c-0.11,-0.01 -0.2,-0.05 -0.29,-0.1 -0.08,-0.05 -0.15,-0.12 -0.2,-0.21 -0.1,-0.16 -0.15,-0.35 -0.14,-0.53 0,-0.22 0.08,-0.47 0.32,-0.53 0.25,-0.06 0.14,-0.22 0.31,-0.35z"/>
    <path class="fil2 str1" d="M8.76 6.96c-0.06,0.13 -0.08,0.26 -0.06,0.39 0,0.07 0.04,0.14 0.11,0.15 0.07,0.01 0.12,-0.08 0.13,-0.15 0.01,-0.12 -0.02,-0.24 -0.09,-0.34 -0.01,-0.02 -0.02,-0.03 -0.04,-0.03 -0.02,0.01 0,0.04 0.01,0.02"/>
    <path class="fil2 str1" d="M9.18 8.06c-0.01,0.16 -0.01,0.32 0.01,0.49 0.05,-0.02 0.1,-0.05 0.14,-0.09 0.03,-0.05 0.05,-0.1 0.06,-0.15 0,-0.05 -0.02,-0.11 -0.05,-0.15 -0.04,-0.04 -0.08,-0.08 -0.14,-0.1"/>
    <line class="fil2 str2" x1="6.51" y1="10.74" x2="6.71" y2= "10.67" />
    <line class="fil2 str2" x1="5.84" y1="9.39" x2="5.79" y2= "9.17" />
    <line class="fil2 str2" x1="6.75" y1="9.17" x2="6.79" y2= "9.21" />
    <line class="fil2 str2" x1="6.75" y1="5.72" x2="6.71" y2= "5.69" />
    <path class="fil2 str2" d="M3.36 5.93c0.01,-0.02 0.01,-0.04 0,-0.06 0,-0.02 -0.01,-0.04 -0.02,-0.06 -0.02,-0.02 -0.04,-0.03 -0.06,-0.04 -0.02,-0.01 -0.05,-0.01 -0.07,-0.02"/>
    <path class="fil2 str2" d="M3.45 8.46c-0.1,0.07 -0.17,0.17 -0.2,0.29"/>
    <line class="fil2 str2" x1="3.61" y1="9.53" x2="3.74" y2= "9.63" />
    <path class="fil2 str2" d="M2.49 10.67c-0.05,-0.01 -0.1,0 -0.15,0.02 -0.05,0.02 -0.09,0.05 -0.12,0.09"/>
    <line class="fil2 str2" x1="10.29" y1="9.99" x2="10.44" y2= "9.92" />
    <path class="fil2 str2" d="M14.95 10.59c0.02,0.01 0.04,0.01 0.06,0.01 0.03,0 0.05,0 0.07,-0.01 0.02,-0.01 0.03,-0.02 0.04,-0.04 0.02,-0.02 0.02,-0.04 0.02,-0.06"/>
    <line class="fil2 str2" x1="14.59" y1="8.29" x2="14.71" y2= "8.18" />
    <line class="fil2 str2" x1="15.46" y1="7.64" x2="15.5" y2= "7.54" />
   </g>
  </g>
 </g>
</svg>
